<svg xmlns="http://www.w3.org/2000/svg" width="115.519" height="114.68" viewBox="0 0 115.519 114.68">
  <g id="Group_1" data-name="Group 1" transform="translate(-4.245 -5.369)">
    <path id="Path_1" data-name="Path 1" d="M119.764,66.429c-.1.868-.2,1.735-.3,2.6a51.023,51.023,0,0,1-2.8,12.541c-.916,2.372-2.076,4.648-3.113,6.977A49.584,49.584,0,0,1,103.3,102.934a57.685,57.685,0,0,1-30.628,16.3c-1.692.336-3.427.48-5.141.715a2.771,2.771,0,0,0-.362.1H56.957c-.693-.1-1.387-.192-2.084-.283a59.342,59.342,0,0,1-21.222-6.972A58.181,58.181,0,0,1,15.236,96.538,54.412,54.412,0,0,1,5.87,76.7a52.34,52.34,0,0,1-1.491-9.994c-.113-2.573-.187-5.158-.083-7.731A50.576,50.576,0,0,1,6.537,46.515,56.347,56.347,0,0,1,18.493,25.048,57.465,57.465,0,0,1,48.947,6.887,55.924,55.924,0,0,1,63.933,5.4a57.847,57.847,0,0,1,21.2,4.814,52.2,52.2,0,0,1,10.618,5.943,61.294,61.294,0,0,1,17.559,20.071,56.453,56.453,0,0,1,5.451,15.484c.427,2.049.61,4.151.907,6.227a3.694,3.694,0,0,0,.1.362ZM62.412,118.636c30.344.179,55.923-25.53,55.9-55.508-.026-31.84-26.01-56.1-56.223-56.184C31.021,6.861,5.377,32.662,5.778,62.23,5.194,92.591,30.258,118.785,62.412,118.636Z" transform="translate(0 0)" fill="#fff"/>
    <path id="Path_2" data-name="Path 2" d="M5.115,60.1C5.242,25.685,34.688,5.108,59.629,6.32,84.187,5.631,113,26.239,113.036,59.98c.035,29.633-24.357,53.367-54.579,53.3C29.377,113.22,5.063,88.981,5.115,60.1ZM98.25,28.218a2.52,2.52,0,0,1-.275-.253,47.317,47.317,0,0,0-5.882-5.9,49.945,49.945,0,0,0-18.3-10.046A54.492,54.492,0,0,0,61.081,9.787a52.065,52.065,0,0,0-10.639.8,45.267,45.267,0,0,0-15.789,5.525Q11.407,29.544,8.883,56.177a43.873,43.873,0,0,0,.924,14.006c3.449,15,12.017,26.211,25.574,33.623a48.712,48.712,0,0,0,20.708,5.8,49.5,49.5,0,0,0,14.621-1.217A50.209,50.209,0,0,0,97.125,92.447a49.027,49.027,0,0,0,11.612-40.971A50.845,50.845,0,0,0,98.52,28.637c-.1-.135-.192-.288-.288-.436a6.866,6.866,0,0,0,4.517,1.212c-.061-.667-.174-.9-.728-1.094-.9-.314-1.827-.567-2.747-.824a1.4,1.4,0,0,0-.571.013C98.3,27.577,98.106,27.8,98.25,28.218Zm-51.44,80.21c-1.753-.545-4.43.536-4.718,1.805a3.685,3.685,0,0,0,1.164.061,26.273,26.273,0,0,0,2.913-1.038C46.43,109.143,46.565,108.755,46.81,108.428ZM93.937,23.095l-.065.209c.235.24.432.584.719.693a7.043,7.043,0,0,0,3.419.51,2.263,2.263,0,0,0,.645-.314,3.987,3.987,0,0,0-.467-.68,1.147,1.147,0,0,0-.567-.24,18.2,18.2,0,0,0-2.215-.371A7.112,7.112,0,0,0,93.937,23.095ZM96.532,21.9c-.253-.266-.427-.61-.689-.7a6.518,6.518,0,0,0-3.628-.318,2.448,2.448,0,0,0-.523.283,3.75,3.75,0,0,0,.4.619.909.909,0,0,0,.475.2,16.028,16.028,0,0,0,1.744.3A3.555,3.555,0,0,0,96.532,21.9ZM29.965,100.85a4.122,4.122,0,0,0-.706-.493,5.947,5.947,0,0,0-3.715-.1.6.6,0,0,0-.392.349c-.017.131.157.336.3.432a3.892,3.892,0,0,0,2.682.467A3.11,3.11,0,0,0,29.965,100.85ZM7.509,45.163a5.836,5.836,0,0,0,.924,3.549,1.658,1.658,0,0,0,1.134.763.67.67,0,0,0,.078-.113,1.4,1.4,0,0,0,.031-.188,6.486,6.486,0,0,0-1.142-3.624A.9.9,0,0,0,7.509,45.163ZM94.1,99.729c1.238-.449,1.945-3.419,1.134-4.657C94.194,95.317,93.453,98.295,94.1,99.729Zm2.115-74.21c.244,1.116,3.658,1.967,4.53,1.09C100.53,25.423,97.1,24.678,96.218,25.519ZM55.365,112.793a5.491,5.491,0,0,0,3.305-2.036,2.005,2.005,0,0,0,.2-.7c-.244-.035-.515-.157-.724-.087a6.311,6.311,0,0,0-3.122,2.1.532.532,0,0,0-.065.475C55.012,112.671,55.225,112.715,55.365,112.793ZM28.94,18.438c.061.14.122.584.318.654.362.131.641-.2.8-.536.31-.676.654-1.343.894-2.045a3.817,3.817,0,0,0,.109-1.265c0-.161-.179-.462-.244-.458a.947.947,0,0,0-.619.27A6.573,6.573,0,0,0,28.94,18.438Zm56.642,84.313c-1.382-.083-2.446,2.5-2.294,4.19C84.562,106.8,85.9,104.36,85.582,102.751ZM18.554,25.127a4.3,4.3,0,0,0-.571.724,5.765,5.765,0,0,0-.131,3.78c.035.148.283.292.462.344.07.022.257-.188.327-.323a5.879,5.879,0,0,0,.379-3.541A4.22,4.22,0,0,0,18.554,25.127ZM100.888,87.86a3.942,3.942,0,0,0-.423.985,23.278,23.278,0,0,0-.1,2.464,2.618,2.618,0,0,0,.235,1.007c.179.427.471.445.754.083a.8.8,0,0,0,.179-.384c.074-.911.183-1.827.174-2.738A1.648,1.648,0,0,0,100.888,87.86Zm7.849-38.115c-.074,1.4,2.145,3.645,3.44,3.427A4.255,4.255,0,0,0,108.736,49.746ZM74.071,110.521a1.678,1.678,0,0,0,1.587-.589,13.542,13.542,0,0,0,1.265-1.844,6.277,6.277,0,0,0,.406-1.374,1.77,1.77,0,0,0-1.408.571,15.088,15.088,0,0,0-1.269,1.722A9.208,9.208,0,0,0,74.071,110.521ZM108.008,46.8c-.026,1.3,2.171,3.31,3.619,3.192C111.68,48.6,109.434,46.619,108.008,46.8ZM45.863,8.361c-1.487.2-3.262,2.459-3,3.789C44.263,12.028,46.033,9.817,45.863,8.361ZM6.772,70.715c-.166,1.086,2.036,3.244,3.606,3.161C10.47,72.525,8.224,70.558,6.772,70.715ZM45.8,11.3a4.432,4.432,0,0,0,.554-.148,4.814,4.814,0,0,0,2.6-2.621,2.183,2.183,0,0,0,0-.807,2.253,2.253,0,0,0-.807.135,5.086,5.086,0,0,0-2.276,2.908A2.985,2.985,0,0,0,45.8,11.3ZM8.446,76.811c.362,1.539,2.734,3.148,4.007,2.878a1.31,1.31,0,0,0-.562-1.286,12.427,12.427,0,0,0-1.81-1.169A8.026,8.026,0,0,0,8.446,76.811ZM6.162,67.527A4.239,4.239,0,0,0,9.6,70.9C9.785,69.577,7.657,67.466,6.162,67.527Zm2.451-2.7C8.957,63.45,6.955,61,5.586,61.122,5.56,62.6,7.265,64.684,8.612,64.828Zm44.088,44.7c-1.818-.131-4.169.946-4.2,2.307C50.176,112.1,52.666,110.739,52.7,109.527Zm27.554-1.77c.087.174.157.488.279.515a.8.8,0,0,0,.667-.192,21.823,21.823,0,0,0,1.421-2.241,3.49,3.49,0,0,0,.318-1.182c.048-.358-.157-.5-.51-.358a1.415,1.415,0,0,0-.414.227A6.867,6.867,0,0,0,80.254,107.757ZM8.691,55.532C8.835,53.7,7.513,51.547,6.2,51.464,5.917,53.033,7.369,55.4,8.691,55.532ZM72.632,11.5a6.168,6.168,0,0,0,3.933-.82c.24-.148.362-.484.536-.733a3.036,3.036,0,0,0-.794-.3,6.053,6.053,0,0,0-3.139.881A.9.9,0,0,0,72.632,11.5Zm33.99,72.985a16.692,16.692,0,0,0,.07-1.875,7.979,7.979,0,0,0-.358-1.805,1.18,1.18,0,0,0-1.025-.863,6.675,6.675,0,0,0,.44,4.2A.621.621,0,0,0,106.622,84.481ZM70.844,7.864a6.091,6.091,0,0,0-4.02,1.513.752.752,0,0,0-.192.637c.026.109.375.183.584.2a1.4,1.4,0,0,0,.658-.087c.85-.388,1.7-.794,2.529-1.225C70.788,8.705,70.866,8.33,70.844,7.864Zm38.407,44.93c-.035,1.369,1.735,3.733,3.231,3.562C112.626,55.057,110.659,52.872,109.251,52.794Zm-38.145,58.67c1.544-.14,3.5-2.608,3.017-3.776A4.438,4.438,0,0,0,71.106,111.463Zm38.241-46.356a1.927,1.927,0,0,0-.031.249,5.943,5.943,0,0,0,1.613,3.671c.174.2.549.218.85.327C112.007,67.615,110.651,65.273,109.347,65.107ZM98.982,95.225c.192-.3.471-.549.51-.828.126-.955.183-1.919.235-2.882a1.46,1.46,0,0,0-.14-.645c-.061-.144-.214-.353-.327-.353a.9.9,0,0,0-.475.27.509.509,0,0,0-.148.292c-.126.876-.283,1.749-.349,2.629A1.678,1.678,0,0,0,98.982,95.225Zm-62.7,9.68c-.754.179-1.618.379-2.481.6a.893.893,0,0,0-.358.227c-.344.327-.323.515.1.7a1.681,1.681,0,0,0,.781.174c.929-.118,1.849-.292,2.773-.453a.865.865,0,0,0,.4-.157.94.94,0,0,0,.344-.462c.013-.1-.2-.31-.349-.358A12.084,12.084,0,0,0,36.279,104.905ZM74.049,8.745a6.237,6.237,0,0,0-4.256,1.343,1.909,1.909,0,0,0-.3.549,2.037,2.037,0,0,0,.606.192,6.034,6.034,0,0,0,2.926-.785A1.994,1.994,0,0,0,74.049,8.745Zm-62.938,27.2a4.242,4.242,0,0,0-.135.523,6.961,6.961,0,0,0,.515,3.593c.14.318.327.628.68.532.17-.048.314-.414.353-.654a5.612,5.612,0,0,0-.719-3.58C11.708,36.167,11.385,36.1,11.111,35.941Zm50.921,73.944c-1.661-.013-3.785,1.618-3.833,2.913C59.695,113,61.949,111.3,62.032,109.885ZM80.215,11.047c-1.531-.706-4.36.126-4.648,1.317a3.072,3.072,0,0,0,.637.174,7.1,7.1,0,0,0,3.462-.767C79.9,11.653,80.027,11.3,80.215,11.047Zm-.157,94.538c-1.356.083-2.9,2.39-2.682,4C78.706,109.4,80.271,107.072,80.058,105.585ZM9.672,80.011c.061,1.356,2.891,2.682,4.155,2.455C13.6,81.1,11.071,79.606,9.672,80.011ZM9.8,38.932c-.554.924.131,3.741.807,4.334.131.118.362.253.493.209a.6.6,0,0,0,.266-.458,6.115,6.115,0,0,0-.85-3.658C10.4,39.15,10.042,39.071,9.8,38.932Zm45.963,70.879a.462.462,0,0,0-.157-.052A6.031,6.031,0,0,0,51.9,111.6c-.17.183-.17.523-.27.863a6.22,6.22,0,0,0,3.471-1.347A1.631,1.631,0,0,0,55.766,109.811ZM61.666,6.7c-1.574-.039-3.689,1.539-3.859,2.9a4.115,4.115,0,0,0,.523-.031,6.019,6.019,0,0,0,2.965-1.657A1.3,1.3,0,0,0,61.666,6.7ZM93.989,19.781l.044-.244a2.5,2.5,0,0,0-.637-.458,7.576,7.576,0,0,0-3.235-.222,2.374,2.374,0,0,0-.593.174c-.392.161-.432.427-.1.7a.785.785,0,0,0,.384.183c.968.109,1.932.253,2.9.27A3.963,3.963,0,0,0,93.989,19.781ZM55.561,6.87c-1.448-.231-3.833,1.91-3.6,3.2A4.458,4.458,0,0,0,55.561,6.87Zm-42.6,26.259-.209.044a5.559,5.559,0,0,0-.344.9,6.3,6.3,0,0,0,.4,3.179c.1.3.24.628.61.519.179-.052.283-.353.41-.549a.387.387,0,0,0,.044-.231c-.092-.994-.148-1.993-.31-2.974C13.509,33.7,13.173,33.425,12.964,33.128ZM5.586,57.865c-.039,1.666,1.679,3.885,2.93,3.828C8.551,60.036,6.942,57.921,5.586,57.865ZM28.422,16.537a1.318,1.318,0,0,0-1.238.855,11.754,11.754,0,0,0-.471,1.347,10.458,10.458,0,0,0-.222,1.687c-.009.183.188.541.27.536a1.461,1.461,0,0,0,.663-.3.778.778,0,0,0,.218-.362,18.4,18.4,0,0,0,.663-2.032A11.47,11.47,0,0,0,28.422,16.537Zm33,96.265c1.7,0,3.99-2.106,3.6-3.214A4.433,4.433,0,0,0,61.421,112.8ZM104.877,37.99l-.092.17a1.7,1.7,0,0,0,.07.266,4.775,4.775,0,0,0,3.715,2.267.455.455,0,0,0,.275-.362.994.994,0,0,0-.31-.606,11.839,11.839,0,0,0-1.9-1.26A9.039,9.039,0,0,0,104.877,37.99ZM81.349,14.871c.379.044.772.109,1.164.131a6.7,6.7,0,0,0,3.1-.488c.187-.083.275-.406.41-.615-.148-.092-.283-.24-.44-.266a7.614,7.614,0,0,0-3.554.266A.862.862,0,0,0,81.349,14.871ZM97.473,92.818l-.192-.057a3.718,3.718,0,0,0-.632.711,5.835,5.835,0,0,0-.4,3.5c.022.2.3.366.458.549.166-.157.4-.283.484-.475a6.5,6.5,0,0,0,.488-2.891A11.61,11.61,0,0,0,97.473,92.818ZM34.243,15.983a3.494,3.494,0,0,0,.9-.445,6.557,6.557,0,0,0,1.64-3.126c.052-.214-.14-.484-.222-.728a2.06,2.06,0,0,0-.7.288,5.943,5.943,0,0,0-1.483,2.847A10.675,10.675,0,0,0,34.243,15.983Zm33.68,96.078c1.469.009,3.571-2.289,3.253-3.519C69.649,108.69,67.805,110.857,67.923,112.061Zm-.2-104.607c-1.251-.5-3.9.868-4.3,2.206C64.517,10.236,67.234,8.862,67.727,7.454Zm-2.808-.427a2.227,2.227,0,0,0-.27-.035,5.1,5.1,0,0,0-3.667,1.792c-.144.131-.131.432-.187.654.218.052.453.192.654.153a5.1,5.1,0,0,0,3.1-1.836A4.357,4.357,0,0,0,64.918,7.027Zm44.053,61.029c-.026.188-.048.279-.052.371a5.61,5.61,0,0,0,1.352,3.728c.148.2.5.266.872.449-.07-1.644-.3-3.057-1.448-4.151A3.31,3.31,0,0,0,108.972,68.055Zm3.61-5.246c-.126-1.757-1.714-3.894-2.843-3.855C109.473,60.464,111.261,62.923,112.582,62.81ZM79.787,13.624h0a3.22,3.22,0,0,0,.767-.009c.754-.183,1.513-.384,2.246-.641.166-.057.253-.366.331-.576.022-.044-.126-.214-.214-.231a6.511,6.511,0,0,0-4.151.624c-.153.074-.214.4-.24.619-.009.052.279.183.44.2A6.421,6.421,0,0,0,79.787,13.624ZM27.345,99.21c-.035-.375-.109-.68-.51-.8a8.066,8.066,0,0,0-2.983-.414,1.445,1.445,0,0,0-1.186.61C23.272,99.459,26.006,99.812,27.345,99.21Zm37.343,13.325c1.443.092,3.654-2.067,3.462-3.349C66.876,109.113,64.652,111.1,64.687,112.536ZM11.377,76.828c-.048-1.4-2.424-3.192-3.846-2.948C7.618,75.176,9.606,76.715,11.377,76.828ZM112.582,59.666c.118-1.561-1.709-3.824-3.031-3.772C109.382,56.962,110.956,59.456,112.582,59.666Zm-9.144-24.331a1.259,1.259,0,0,0,.641,1.147,22.672,22.672,0,0,0,2.307,1.142,5.259,5.259,0,0,0,1.2.2C107.585,36.486,105.143,35.073,103.438,35.334ZM5.808,54.568c-.209,1.6,1.435,4.055,2.669,4.055a1.294,1.294,0,0,0,.013-.183A5.051,5.051,0,0,0,6.6,54.834C6.419,54.664,6.083,54.656,5.808,54.568Zm97.909-22.482a1.679,1.679,0,0,0,.331,0c.148-.035.375-.078.4-.166a.807.807,0,0,0-.1-.475.55.55,0,0,0-.2-.2A5.746,5.746,0,0,0,100.8,30.01c-.235,0-.471.192-.706.292a2.214,2.214,0,0,0,.388.61A6.036,6.036,0,0,0,103.718,32.086Zm-78.7,65.1a.886.886,0,0,0-.7-.907,5.164,5.164,0,0,0-1.068-.262c-.807-.048-1.618-.052-2.424-.031-.148,0-.423.257-.406.34a.87.87,0,0,0,.371.541,4.486,4.486,0,0,0,1.094.336A5.678,5.678,0,0,0,25.02,97.187Zm61.1,8.232c1.273-.288,2.368-2.608,2.071-4.461-.3.135-.667.183-.815.388A5.9,5.9,0,0,0,86.119,105.42Zm-36.335,3.628a6.307,6.307,0,0,0-4.182,1.23,3.977,3.977,0,0,0-.445.859,5.757,5.757,0,0,0,4.02-1.186A4.318,4.318,0,0,0,49.783,109.048ZM19.9,27.555l.235.078c.209-.2.532-.358.61-.6a6.455,6.455,0,0,0,.318-3.741c-.131-.5-.462-.58-.794-.17a1.645,1.645,0,0,0-.34.772,15.907,15.907,0,0,0-.2,2.084A12.14,12.14,0,0,0,19.9,27.555ZM8.974,52.571l.122-.135a6.507,6.507,0,0,0-1.343-3.78.509.509,0,0,0-.174-.161,1.383,1.383,0,0,0-.641-.183c-.1.017-.218.362-.2.549a5.931,5.931,0,0,0,1.426,3.27C8.342,52.349,8.7,52.427,8.974,52.571ZM90.745,99.232a.8.8,0,0,0-.972.484c-.34.833-.667,1.679-.959,2.529a1.691,1.691,0,0,0-.052.846.85.85,0,0,0,.414.558c.131.048.445-.166.554-.34A7.726,7.726,0,0,0,90.745,99.232ZM43.635,107.7c-.859-.82-4.356.109-4.557,1.33C40.273,109.675,43.147,108.838,43.635,107.7ZM25.552,18.538c-1.212.419-1.98,3.671-1.1,4.526C25.613,22.41,26.268,19.763,25.552,18.538ZM101.843,32.6a1.8,1.8,0,0,0,1.06,1.439,19.193,19.193,0,0,0,2.193.824c.344.118.82.253.981-.148.078-.2-.209-.65-.449-.859A5.91,5.91,0,0,0,101.843,32.6Zm6.623,38.476-.214.092c0,.323-.022.65,0,.972a5.276,5.276,0,0,0,1.147,3.022,2.208,2.208,0,0,0,.68.371,2.266,2.266,0,0,0,.222-.689,5.18,5.18,0,0,0-1.1-3.135A4.535,4.535,0,0,0,108.466,71.073ZM55,9.691c1.565.092,3.82-1.727,3.763-3.022C57.331,6.59,54.946,8.4,55,9.691ZM52.3,7.24C50.921,6.9,48.484,9.5,48.981,10.6,50.424,10.467,52.347,8.352,52.3,7.24ZM31.6,17.461a1.537,1.537,0,0,0,1.16-.759,17.771,17.771,0,0,0,.894-1.888,3.072,3.072,0,0,0,.074-1.831c-.327.2-.672.31-.833.541A5.621,5.621,0,0,0,31.6,17.461ZM12.641,85.676l-.087.227a3.885,3.885,0,0,0,.519.706,4.975,4.975,0,0,0,3.235,1.269,1.649,1.649,0,0,0,.549-.2,1.563,1.563,0,0,0-.24-.532,5.383,5.383,0,0,0-2.76-1.456A6.291,6.291,0,0,0,12.641,85.676ZM88.909,15.582a4.056,4.056,0,0,0-1.247-.432c-.99.022-1.975.153-2.956.27a.713.713,0,0,0-.632.658A4.319,4.319,0,0,0,88.909,15.582ZM9.026,67.876c.24-1.365-1.906-3.706-3.24-3.541C5.778,65.762,7.649,67.807,9.026,67.876ZM110.9,46.824c.039-1.426-2.5-3.183-3.689-3.017C107.092,45.3,109.683,46.964,110.9,46.824ZM29.952,103.309a11.047,11.047,0,0,0,1.618-.153,1.757,1.757,0,0,0,.767-.562c.157-.166.087-.358-.179-.41-.423-.078-.842-.2-1.269-.24a5.459,5.459,0,0,0-2.913.362c-.126.061-.305.218-.292.305a.9.9,0,0,0,.283.462.621.621,0,0,0,.358.109C28.866,103.231,29.407,103.266,29.952,103.309ZM23.5,22.109l-.057-.022a6.1,6.1,0,0,0-.1-.894,2.114,2.114,0,0,0-.31-.528c-.209.14-.523.235-.61.427a4.9,4.9,0,0,0-.44,1.452,15.675,15.675,0,0,0-.039,2.171c0,.161.231.458.31.44a1.284,1.284,0,0,0,.589-.34.859.859,0,0,0,.2-.427C23.193,23.631,23.346,22.868,23.5,22.109ZM21.506,95.269l.026-.1a.7.7,0,0,0,.192,0c.336-.1.92-.157.955-.323.083-.427-.349-.672-.728-.811a7.992,7.992,0,0,0-3.292-.528c-.183.009-.51.166-.506.231a1.088,1.088,0,0,0,.266.615,1.245,1.245,0,0,0,.584.31C19.836,94.88,20.673,95.072,21.506,95.269Zm18.48-82.037c1.356-.262,3.017-2.625,2.773-3.9C41.411,9.338,39.785,11.6,39.985,13.231Zm62.646,72.13a2.682,2.682,0,0,0-.388.624,7.1,7.1,0,0,0,.288,3.789.4.4,0,0,0,.728.07.951.951,0,0,0,.2-.519c.017-.885.039-1.775-.013-2.66A1.464,1.464,0,0,0,102.632,85.362Zm5.5-4.9.109-.044c-.283-.937-.558-1.875-.855-2.8a.907.907,0,0,0-.244-.349c-.314-.3-.584-.262-.641.161a7.223,7.223,0,0,0-.052,1.788,3.536,3.536,0,0,0,.868,2.128c.358.375.589.314.711-.179A6.335,6.335,0,0,0,108.135,80.461ZM16.343,27.717c-.17.323-.449.61-.467.916-.052,1.012-.039,2.032.009,3.048a1.12,1.12,0,0,0,.4.658c.266.24.545.227.589-.214.1-.959.231-1.919.244-2.882A1.729,1.729,0,0,0,16.343,27.717ZM11.071,83.033c.406,1.26,2.625,2.394,4.195,2.167C15.131,83.883,12.41,82.462,11.071,83.033Zm3.467-52.752a4.947,4.947,0,0,0-.388.876,6.7,6.7,0,0,0,.131,3.3c.087.318.209.693.58.637.183-.026.388-.4.449-.645a5.981,5.981,0,0,0-.244-3.558C15,30.691,14.778,30.547,14.538,30.281Zm21.475,77.446a4.513,4.513,0,0,0,.693.214,7.221,7.221,0,0,0,3.467-.584.86.86,0,0,0,.567-.942,9.812,9.812,0,0,0-3.388.2A2.024,2.024,0,0,0,36.013,107.726Zm73.094-28.984.135-.1a12.86,12.86,0,0,0-.009-1.36,4.842,4.842,0,0,0-.964-2.747c-.144-.166-.436-.2-.663-.305a2.41,2.41,0,0,0-.209.593,6.3,6.3,0,0,0,1.007,3.475C108.523,78.507,108.867,78.6,109.107,78.743Zm.532-16.7c-.183,1.67,1.352,4.033,2.6,4.012C112.308,64.275,110.956,62.186,109.639,62.042Zm-72.544-47.6a4.118,4.118,0,0,0,2.568-4.046C38.32,10.6,36.933,12.774,37.095,14.439ZM93.244,98.325a1.063,1.063,0,0,0-.035-.379c-.1-.24-.214-.6-.4-.65-.349-.1-.567.2-.667.532-.174.562-.375,1.116-.51,1.687a8.814,8.814,0,0,0-.222,1.583c-.009.183.209.532.327.532a.808.808,0,0,0,.619-.327A6.351,6.351,0,0,0,93.244,98.325ZM20.647,92.6a1.742,1.742,0,0,0-1.129-1.094,5.976,5.976,0,0,0-2.869-.406c-.161.013-.445.109-.449.17a1.074,1.074,0,0,0,.183.554.785.785,0,0,0,.384.27c.82.262,1.635.549,2.472.733A1.526,1.526,0,0,0,20.647,92.6Zm85.408-51.667c.349,1.461,2.52,2.987,3.824,2.725C109.787,42.3,107.633,40.75,106.055,40.938ZM91.447,17.587c-.658-.972-3.937-.972-4.727,0C87.27,18.551,90.732,18.555,91.447,17.587Zm12.51,65.14c-.031.083-.057.14-.074.2a7.951,7.951,0,0,0,.192,3.772,1.142,1.142,0,0,0,.353.488c.231.227.436.179.541-.131a2.542,2.542,0,0,0,.218-.868c-.057-.881-.174-1.762-.288-2.642A.881.881,0,0,0,103.957,82.728ZM18.663,90.381l.1-.131a4.608,4.608,0,0,0-.449-.632,4.048,4.048,0,0,0-2.254-1.086,6.448,6.448,0,0,0-1.421-.035c-.388.026-.423.292-.24.58a1.056,1.056,0,0,0,.3.31A6.754,6.754,0,0,0,18.663,90.381ZM10.391,46.458a6.329,6.329,0,0,0-1.055-4.173.644.644,0,0,0-.541-.192c-.131.017-.279.24-.323.4a1.077,1.077,0,0,0,0,.61q.445,1.406.942,2.8A.859.859,0,0,0,10.391,46.458Zm24.7,57.322a9.04,9.04,0,0,0-1.029-.113c-.894,0-1.792-.013-2.682.078a.973.973,0,0,0-.916,1.042,11.844,11.844,0,0,0,3.488.092A1.168,1.168,0,0,0,35.093,103.78Z" transform="translate(2.922 3.026)" fill="#fff"/>
    <path id="Path_3" data-name="Path 3" d="M8.963,47.249c.144-19.827,15.462-37.042,37.36-37.16C66.6,9.985,83.518,26.881,83.291,46.7,83.008,70.913,63.5,84.112,45.953,83.733,26.388,84.177,8.854,67.176,8.963,47.249Zm37.2,35.585c19.517.318,35.511-16.012,36.222-34.5C83.2,27.23,65.679,11.1,46.228,11.04,26.575,10.983,10.193,27.121,9.875,46.268,9.543,66.212,26.5,83.214,46.167,82.834Z" transform="translate(15.853 15.862)" fill="#fff"/>
    <path id="Path_4" data-name="Path 4" d="M25.244,12.947,23.63,15.284l-1.007-.7,3.493-4.9c.1.044.148.057.187.078,1,.619,1,.619.711,1.744a12.576,12.576,0,0,0-.388,1.936l1.635-2.3c1.186.772.985.6.379,1.483C27.7,14,26.709,15.35,25.719,16.736a10.109,10.109,0,0,1-.964-.68.516.516,0,0,1-.1-.44c.183-.693.4-1.374.6-2.062.048-.174.083-.358.122-.541Z" transform="translate(61.756 14.491)" fill="#fff"/>
    <path id="Path_5" data-name="Path 5" d="M14.606,8.98c.109-.052.135-.074.161-.083,1.382-.336,1.051-.484,1.788.68.34.545.689,1.086,1.033,1.631l.179-.078-.654-2.765,1.151-.292,1.36,5.952-1.417.3-1.6-2.7-.153.078.667,2.9-1.173.253Z" transform="translate(34.816 9.087)" fill="#fff"/>
    <path id="Path_6" data-name="Path 6" d="M13.623,18.409l-.484,1.077L7.636,17c.17-.4.3-.776.48-1.121a.519.519,0,0,1,.423-.17c.719.07,1.435.17,2.15.257.148.017.3.026.453.035l.057-.157L8.748,14.619l.427-1.068,5.5,2.564a1.645,1.645,0,0,1-.039.2c-.558,1.247-.253,1.073-1.522.933-.667-.074-1.339-.144-2.01-.214a1.51,1.51,0,0,0-.279.052Z" transform="translate(11.394 27.496)" fill="#fff"/>
    <path id="Path_7" data-name="Path 7" d="M21.938,8.353a.892.892,0,0,1,.161,0c1.138.323,1.142.323,1.169,1.487.013.593,0,1.19,0,1.788l.209.031.868-2.568,1.129.41-1.923,5.712a5.7,5.7,0,0,1-.955-.323.677.677,0,0,1-.31-.484c-.044-.663-.026-1.33-.031-2a1.289,1.289,0,0,0-.109-.619L21.17,14.37a.714.714,0,0,1-.174,0c-1-.3-1-.3-.676-1.278l1.4-4.16C21.785,8.737,21.864,8.545,21.938,8.353Z" transform="translate(53.363 10.015)" fill="#fff"/>
    <path id="Path_8" data-name="Path 8" d="M12.778,20.136v1.321L6.8,20.825V19.578c.641,0,1.243,0,1.844,0,.266,0,.475-.048.571-.379.126-.427,0-.641-.41-.719-.567-.1-1.129-.192-1.7-.292l-.026-.039c-.126-1.116-.07-1.225,1.029-1.134,1.687.144,3.371.371,5.11.567l-.174,1.282c-.706-.031-1.36-.065-2.015-.083-.262-.009-.5.026-.58.362-.126.5-.07.632.449.724C11.518,19.966,12.137,20.044,12.778,20.136Z" transform="translate(8.584 39.033)" fill="#fff"/>
    <path id="Path_9" data-name="Path 9" d="M29.861,12.071c.523.785,1.047,1.474,1.452,2.224a1.282,1.282,0,0,1-.9,1.94,2.289,2.289,0,0,0-1.766,1.195c-.288.558-.937.933-1.469,1.426l-.82-1.16c.331-.279.645-.523.933-.794a2.066,2.066,0,0,0,.541-.654.922.922,0,0,0-.1-.685c-.031-.057-.414-.017-.571.078-.493.318-.959.685-1.483,1.064l-.8-1.055ZM29.22,15.25a1.609,1.609,0,0,0,.445-.087c.192-.14.493-.3.515-.471A1,1,0,0,0,29.861,14c-.083-.078-.392.061-.589.126a.609.609,0,0,0-.275.187c-.131.179-.375.467-.323.545A1.579,1.579,0,0,0,29.22,15.25Z" transform="translate(69.317 22.522)" fill="#fff"/>
    <path id="Path_10" data-name="Path 10" d="M18.342,12.692a1.756,1.756,0,0,1-1.251,1.919,1.69,1.69,0,0,1-2.137-.419,8.94,8.94,0,0,1-1.5-3.872,1.011,1.011,0,0,1,.035-.471,2.269,2.269,0,0,1,1.779-1.291,1.444,1.444,0,0,1,1.67.536A8.911,8.911,0,0,1,18.342,12.692Zm-3.48-2.311a2.182,2.182,0,0,0,.074.362c.27.763.536,1.531.842,2.281.187.462.528.624.911.467.427-.174.353-.554.253-.859-.262-.815-.554-1.622-.885-2.411a.949.949,0,0,0-.519-.44C14.988,9.566,14.858,9.683,14.862,10.381Z" transform="translate(30.901 10.473)" fill="#fff"/>
    <path id="Path_11" data-name="Path 11" d="M20.683,11.418a20.016,20.016,0,0,1-.632,2.062,1.451,1.451,0,0,1-1.487.855,1.838,1.838,0,0,1-1.74-.9,1.88,1.88,0,0,1-.262-.711c-.061-1.125-.144-2.254-.1-3.375a1.671,1.671,0,0,1,1.456-1.452,1.71,1.71,0,0,1,2.049.942A25.7,25.7,0,0,1,20.683,11.418Zm-2.939-.937c.026.419.035.737.065,1.051a4.277,4.277,0,0,0,.174,1.169c.078.2.406.34.65.44.065.031.31-.153.34-.27a7.683,7.683,0,0,0-.1-3.392c-.039-.183-.458-.327-.724-.414-.052-.017-.283.3-.323.48A6.087,6.087,0,0,0,17.744,10.481Z" transform="translate(41.013 8.376)" fill="#fff"/>
    <path id="Path_12" data-name="Path 12" d="M10.784,11.856l1.121-.82c.645.924,1.26,1.814,1.884,2.695a5.971,5.971,0,0,0,.772.968c.166.153.467.157.706.231.035-.262.161-.558.078-.776a4.794,4.794,0,0,0-.619-1.068c-.624-.885-1.265-1.757-1.923-2.664l1.1-.711a2.22,2.22,0,0,1,.249.257c.794,1.156,1.622,2.294,2.368,3.48a1.548,1.548,0,0,1-.554,2.411,1.609,1.609,0,0,1-2.455-.279C12.567,14.381,11.7,13.116,10.784,11.856Z" transform="translate(21.972 14.592)" fill="#fff"/>
    <path id="Path_13" data-name="Path 13" d="M25.839,11.772a4.387,4.387,0,0,0-.423-.174c-.51-.157-.785-.41-.545-.994.061-.148-.07-.375-.113-.563a1.467,1.467,0,0,0-.584.192,2.614,2.614,0,0,0-.571.754c-.336.685-.645,1.387-.933,2.093-.074.183-.126.5-.026.606a.717.717,0,0,0,.637.179c.161-.061.262-.362.314-.576.07-.31.065-.632.113-.946a5.533,5.533,0,0,1,.148-.589l1.722.776c-.5.942-.972,1.853-1.469,2.756-.035.065-.253.092-.353.052-.549-.218-1.086-.467-1.626-.693a1.229,1.229,0,0,1-.846-1.212,3.188,3.188,0,0,1,.179-1.116c.327-.776.724-1.522,1.108-2.272a2.03,2.03,0,0,1,.353-.449,1.849,1.849,0,0,1,2.455-.44A2,2,0,0,1,25.839,11.772Z" transform="translate(57.25 11.733)" fill="#fff"/>
    <path id="Path_14" data-name="Path 14" d="M27.406,15.684a2.907,2.907,0,0,0-.41.436c-.157.253-.244.549.061.759a.582.582,0,0,0,.842-.288,7.984,7.984,0,0,0,.2-1.169c.044-.266.052-.541.1-.8a1.613,1.613,0,0,1,1.609-1.426,1.79,1.79,0,0,1,1.862,1.347,1.624,1.624,0,0,1-1,1.94,3.818,3.818,0,0,1-.41-.719c-.048-.14.083-.331.126-.5a6.244,6.244,0,0,0,.161-.741c0-.026-.244-.148-.31-.109-.227.14-.549.288-.619.5a11.2,11.2,0,0,0-.292,1.587,1.821,1.821,0,0,1-2.437,1.64,1.866,1.866,0,0,1-1.286-1.587,1.5,1.5,0,0,1,.815-1.64c.292-.17.488-.166.641.166A6.568,6.568,0,0,0,27.406,15.684Z" transform="translate(71.72 26.292)" fill="#fff"/>
    <path id="Path_15" data-name="Path 15" d="M22.584,13.6l-.275,1.121-3.174-.706L20.5,8.062l3.214.789-.275.994-1.858-.327-.235,1.116,1.679.427-.192,1.055-1.823-.183a9.077,9.077,0,0,0-.2.994.4.4,0,0,0,.244.3C21.551,13.369,22.048,13.469,22.584,13.6Z" transform="translate(50.035 9.05)" fill="#fff"/>
    <path id="Path_16" data-name="Path 16" d="M11.183,12.919c-.2.358-.314.794-.584.955s-.7.031-1.064.031c-.052.728.353,1.025,1.047.772a6.658,6.658,0,0,1,1.766-.545,1.81,1.81,0,0,1,1.836,2.608,1.466,1.466,0,0,1-1.452.977,12.179,12.179,0,0,1-1.5-.27c.222-.406.375-.715.558-1,.039-.065.187-.1.279-.092.144.009.279.092.419.092.192,0,.488.013.549-.087a.686.686,0,0,0-.022-.6.638.638,0,0,0-.51-.288c-.515.118-1,.323-1.5.488a2.07,2.07,0,0,1-1.766-.052,1.73,1.73,0,0,1-.807-2.132,1.794,1.794,0,0,1,2.167-1.055A5.3,5.3,0,0,1,11.183,12.919Z" transform="translate(13.651 24.505)" fill="#fff"/>
    <path id="Path_17" data-name="Path 17" d="M30.052,12.775l-.776.68c-.266-.292-.493-.571-.75-.82a.736.736,0,0,0-1.169.083.364.364,0,0,0-.035.331c.2.3.436.576.667.85a4.844,4.844,0,0,0,.406.362c-.166.209-.31.4-.458.58-.07.083-.148.157-.257.27a12.377,12.377,0,0,0-.959-.807c-.2-.144-.423-.458-.728-.113-.484.545-.541.785-.218,1.138.288.318.589.624.924.977l-.754.8-2.42-2.189,4.221-4.452,2.137,2.385Z" transform="translate(64.784 17.136)" fill="#fff"/>
    <path id="Path_18" data-name="Path 18" d="M29.1,15.15l-.754.65c-.358-.327-.7-.632-1.033-.942-.445-.414-.624.065-.894.257-.288.2-.283.4-.057.663.3.349.558.733.859,1.125l-.772.706-2.215-2.381,4.618-3.99L31,13.672l-.846.733.1-.17c-.406-.327-.807-.667-1.225-.981-.179-.135-.379-.235-.584.009-.183.222-.445.4-.2.728C28.533,14.37,28.812,14.754,29.1,15.15Z" transform="translate(67.183 19.727)" fill="#fff"/>
    <path id="Path_19" data-name="Path 19" d="M9.933,16.529l1.051.231-.327,1.727,1.378.318.445-1.753,1.16.218-.776,3.078c-.628-.144-1.217-.275-1.805-.41-1.247-.288-2.494-.589-3.746-.859-.3-.065-.423-.183-.344-.48.214-.833.44-1.661.641-2.494.092-.4.34-.292.589-.218s.562.07.432.5a8.849,8.849,0,0,0-.222,1.125c-.031.192-.135.458.187.48s.711.362.911-.153C9.667,17.432,9.785,17,9.933,16.529Z" transform="translate(9.07 35.114)" fill="#fff"/>
    <path id="Path_20" data-name="Path 20" d="M19.366,10.279l1.653.131-.065,1.1-1.792.092-.135,2.407-1.374-.065.41-6.065,3.244.218V9.193h-1.94Z" transform="translate(45.052 8.442)" fill="#fff"/>
    <path id="Path_21" data-name="Path 21" d="M7.817,24.87c-.031-.1-.057-.157-.07-.218-.2-.807-.187-.8.506-1.26a4.668,4.668,0,0,0,1.02-.894l-1.9.445-.288-.82,4.561-1.26.318,1.156-1.875,1.142.061.166c.5-.148,1-.3,1.5-.449.44-.131.619-.039.693.423a.453.453,0,0,1-.174.4A21.772,21.772,0,0,1,7.817,24.87Z" transform="translate(9.539 52.067)" fill="#fff"/>
    <path id="Path_22" data-name="Path 22" d="M15.621,27.669c.658.218,1.3.375,1.888.637A.9.9,0,0,1,18,29.714a3.528,3.528,0,0,0-.445,1.962c.026.619-.222.894-.842,1a5.092,5.092,0,0,1-2.35-.414Zm.283,2.948c-.083.3-.192.593-.253.9-.052.288.1.427.392.327.279-.092.619-.148.6-.554S16.485,30.573,15.9,30.617Zm.488-1.844a3.4,3.4,0,0,0-.044.724c.013.109.218.3.292.279a.633.633,0,0,0,.419-.3C17.23,29.077,17.03,28.859,16.393,28.772Z" transform="translate(33.993 74.938)" fill="#fff"/>
    <path id="Path_23" data-name="Path 23" d="M14.355,17.368c-.384-.249-.754-.462-1.09-.719-.763-.584-1.5-1.2-2.259-1.779-.567-.427-.58-.406-1.09.083-.083.078-.166.148-.283.257l-.85-.6,2.281-2.961c.828.484.828.484.266,1.587.253.209.515.436.781.65.859.693,1.709,1.4,2.586,2.071.305.231.379.419.131.724C14.664,16.879,14.538,17.1,14.355,17.368Z" transform="translate(15.245 21.111)" fill="#fff"/>
    <path id="Path_24" data-name="Path 24" d="M12.52,10.47c.039.039.126.109.2.187.166.174.323.353.48.528-.724.951-.737.964.126,1.805s1.762,1.666,2.638,2.494l-1.038,1.1c-.427-.453-.807-.876-1.208-1.282-.584-.584-1.195-1.151-1.775-1.744-.353-.358-.685-.432-1.068-.057a3.143,3.143,0,0,1-.336.231l-.65-.628Z" transform="translate(18.971 17.142)" fill="#fff"/>
    <path id="Path_25" data-name="Path 25" d="M7.818,21.869H6.763v-3.65H7.818v1.094h5.019v1.352c-.344,0-.689,0-1.038,0-1.042.017-2.084.022-3.122.065-.776.031-.8.087-.833.837C7.84,21.659,7.827,21.751,7.818,21.869Z" transform="translate(8.46 43.182)" fill="#fff"/>
    <path id="Path_26" data-name="Path 26" d="M30.8,26.079a.773.773,0,0,1-.022.153c-.51.872-.515.868-1.356.327a1.374,1.374,0,0,0-.554-.262,1.6,1.6,0,0,0-.562.135,1.777,1.777,0,0,0,.275.6,9.727,9.727,0,0,0,1.025.715l-.5.872L25.153,25.9c.493-.606.937-1.221,1.456-1.77a.738.738,0,0,1,1.09-.009A7.861,7.861,0,0,0,30.8,26.079Zm-4.151-.92c.013.676.2.855.894.876C27.765,25.224,27.543,25,26.653,25.159Z" transform="translate(70.258 62.209)" fill="#fff"/>
    <path id="Path_27" data-name="Path 27" d="M12.263,31.064l-.842-.92c.266-.318.528-.654.807-.977.209-.235.222-.5-.017-.654-.118-.078-.414,0-.571.1a10.894,10.894,0,0,0-.942.733l.074.144L10,28.84l3.331-3.484A20.3,20.3,0,0,1,14.8,27.192c.4.637.144,1.147-.576,1.422a3.556,3.556,0,0,0-.5.166,1.15,1.15,0,0,0-.436.392C12.943,29.751,12.642,30.353,12.263,31.064Zm.427-3.445.083.17a2.246,2.246,0,0,0,.676.052.541.541,0,0,0,.362-.358.924.924,0,0,0-.157-.6c-.035-.052-.375.017-.5.122A3.587,3.587,0,0,0,12.69,27.619Z" transform="translate(19.338 67.166)" fill="#fff"/>
    <path id="Path_28" data-name="Path 28" d="M8.769,26.644l-.571-.85,4.116-2.49c.366.68.715,1.3,1.033,1.936a.709.709,0,0,1-.292.99.65.65,0,0,1-.166.1c-1.282.275-2.028,1.3-3.017,2.1L9.266,27.5c.288-.209.549-.388.8-.584a1.307,1.307,0,0,0,.406-.4,1.6,1.6,0,0,0,.022-.562,1.239,1.239,0,0,0-.523,0C9.572,26.156,9.2,26.4,8.769,26.644Zm3.567-1.967a6.944,6.944,0,0,0-.955.4c-.266.17-.209.449.083.589C12.079,25.955,12.4,25.659,12.336,24.678Z" transform="translate(13.282 60.27)" fill="#fff"/>
    <path id="Path_29" data-name="Path 29" d="M14.834,27.178c.576.27,1.1.506,1.613.763.593.3.811.645.593,1.278a18.437,18.437,0,0,1-1.108,2.516.962.962,0,0,1-1.282.458c-.262-.074-.515-.179-.767-.275-.3-.113-.593-.235-.972-.384Zm-.567,4.09c.493-.013.868-.057,1.051-.471.244-.554.5-1.1.693-1.674A.6.6,0,0,0,15.8,28.6a.531.531,0,0,0-.484.161C14.947,29.568,14.629,30.392,14.267,31.268Z" transform="translate(29.12 73.288)" fill="#fff"/>
    <path id="Path_30" data-name="Path 30" d="M9.549,26.534a1.6,1.6,0,0,1-1.6-1.029,1.253,1.253,0,0,1,.406-1.583,5.945,5.945,0,0,1,2.5-1.26,1.551,1.551,0,0,1,1.77.9,1.351,1.351,0,0,1-.532,1.8A5.833,5.833,0,0,1,9.549,26.534Zm-.728-1.09a1.827,1.827,0,0,0,.58-.009c.61-.227,1.208-.484,1.814-.737a.772.772,0,0,0,.453-1.047,2.5,2.5,0,0,0-.61.065c-.567.214-1.112.475-1.674.706A.909.909,0,0,0,8.82,25.444Z" transform="translate(12.023 57.991)" fill="#fff"/>
    <path id="Path_31" data-name="Path 31" d="M23.467,27.158c.593-.453,1.129-.907,1.7-1.3a.8.8,0,0,1,1.121.17.854.854,0,0,1,.179.222c.41,1.147,1.461,1.709,2.3,2.459a.991.991,0,0,1,.078.109c-.789.82-.859.85-1.5-.013a.823.823,0,0,0-.406-.31.907.907,0,0,0-.554.07c-.052.026-.048.3.013.419a3.258,3.258,0,0,0,.41.58c.135.174.283.34.449.532l-.7.672Zm1.478-.349c-.031.75.336,1.108,1.033,1-.061-.3-.035-.672-.214-.855C25.612,26.8,25.233,26.852,24.945,26.809Z" transform="translate(64.593 68.325)" fill="#fff"/>
    <path id="Path_32" data-name="Path 32" d="M17.587,30.411c.048-.427.07-.759.126-1.09a1.34,1.34,0,0,1,1.243-1.247,1.348,1.348,0,0,1,1.574.8,4,4,0,0,1,.126,3.288,1.36,1.36,0,0,1-1.531.89,1.329,1.329,0,0,1-1.278-1.038C17.713,31.462,17.661,30.891,17.587,30.411Zm1.094.074c.052.414.087.794.157,1.164.039.218.022.493.4.471a.475.475,0,0,0,.51-.51c0-.759-.026-1.517-.083-2.272-.009-.14-.231-.388-.3-.371-.187.044-.445.179-.488.331A8.183,8.183,0,0,0,18.681,30.485Z" transform="translate(44.833 76.208)" fill="#fff"/>
    <path id="Path_33" data-name="Path 33" d="M11.74,10.923l3.288-1.788.506.9-.942.488c.488,1.622,1.648,2.874,2.359,4.439a7.791,7.791,0,0,1-.951.523c-.087.035-.327-.118-.4-.24-.654-1.129-1.286-2.272-1.927-3.41-.078-.135-.161-.27-.27-.449-.244.1-.484.187-.7.305-.318.174-.532.126-.672-.222A5.667,5.667,0,0,0,11.74,10.923Z" transform="translate(25.185 12.656)" fill="#fff"/>
    <path id="Path_34" data-name="Path 34" d="M14.154,26.562a3.49,3.49,0,0,1-.506.872,18.449,18.449,0,0,1-1.805,1.5,1.439,1.439,0,0,1-2.049-.305A1.415,1.415,0,0,1,9.907,26.6c.545-.51,1.147-.964,1.735-1.43a1.255,1.255,0,0,1,1.517-.135A1.939,1.939,0,0,1,14.154,26.562Zm-3.667,1.6c1.081.031,2.6-1.273,2.551-2.158A2.551,2.551,0,0,0,10.487,28.166Z" transform="translate(17.395 65.432)" fill="#fff"/>
    <path id="Path_35" data-name="Path 35" d="M27.122,30.71l-.881.493c-.253-.432-.48-.833-.719-1.225a.511.511,0,0,0-.8-.2c-.244.157-.331.323-.17.589.257.419.5.846.781,1.326l-.824.532L22,28.168l.876-.484c.161.266.3.515.453.741.118.17.24.4.406.453a.982.982,0,0,0,.685-.074c.087-.044.1-.375.035-.523a12.042,12.042,0,0,0-.641-1.116l.833-.523Z" transform="translate(59.656 71.487)" fill="#fff"/>
    <path id="Path_36" data-name="Path 36" d="M16.861,28.058c.737.074,1.422.1,2.1.222s1,.558.75,1.173a5.047,5.047,0,0,0-.1,2.8,3.891,3.891,0,0,1,0,.641H18.579c0-.406-.022-.794,0-1.186.031-.419-.144-.619-.672-.663l-.318,1.749H16.7Zm1.016,2.163c.305-.118.654-.148.719-.3a1.112,1.112,0,0,0-.044-.811c-.061-.131-.4-.135-.676-.214Z" transform="translate(41.853 76.246)" fill="#fff"/>
    <path id="Path_37" data-name="Path 37" d="M29.472,17.782l1.012-.209c.706-.148.706-.148.872.637l-4.238,1.081c-.427-.789-.388-.924.323-1.374.279-.179.554-.371.824-.571a.388.388,0,0,0,.135-.3c-.44.109-.881.209-1.312.34-.31.1-.471.031-.58-.283-.118-.331-.009-.48.3-.549,1.182-.279,2.363-.562,3.549-.82.14-.031.445.078.458.157.044.253.262.541-.074.781-.449.318-.876.672-1.312,1.007Z" transform="translate(74.652 34.824)" fill="#fff"/>
    <path id="Path_38" data-name="Path 38" d="M29.512,25.334c.135-.244.249-.48.392-.7s.323-.414.528-.672l-.824-.331c-.122.262-.222.506-.349.737a.91.91,0,0,1-1.19.532,5.049,5.049,0,0,1-1.3-.667,1.024,1.024,0,0,1-.279-1.334c.31-.706.576-.911,1.19-.872a5.956,5.956,0,0,1,2.935.964,1.319,1.319,0,0,1,.449,1.7A1.242,1.242,0,0,1,29.512,25.334Zm-1.286-1.452.475-.3c-.14-.179-.27-.358-.423-.523-.048-.052-.144-.061-.218-.1-.283-.118-.571-.174-.75.153-.126.227.153.593.5.693A3.059,3.059,0,0,0,28.226,23.882Z" transform="translate(74.31 55.969)" fill="#fff"/>
    <path id="Path_39" data-name="Path 39" d="M31,16.552a2.306,2.306,0,0,1,.1.292c.449,2.15-.026,2.769-2.311,3-1.291.131-1.757-.214-1.988-1.483-.052-.3-.1-.593-.166-.972Zm-.567,1.129c-.815.144-1.618.3-2.424.436-.231.039-.436.135-.331.388a.572.572,0,0,0,.419.31,15.907,15.907,0,0,0,1.927-.279C30.369,18.466,30.534,18.187,30.43,17.681Z" transform="translate(75.242 37.58)" fill="#fff"/>
    <path id="Path_40" data-name="Path 40" d="M22.923,27.039c.039-.057.048-.092.07-.109,1.073-.837.733-.828,1.7-.039s1.871,1.64,2.843,2.507l-.741.615a2.514,2.514,0,0,0-.545-.379.97.97,0,0,0-.589.013c-.24.083-.288.279-.209.545.227.767.214.772-.61,1.164Zm1.461.9c.065.728.222.955.741,1.081C25.365,28.456,25.1,28.081,24.384,27.937Z" transform="translate(62.764 70.34)" fill="#fff"/>
    <path id="Path_41" data-name="Path 41" d="M9.827,25.3c-1.552.44-2.1.009-2.346-1.06a1.25,1.25,0,0,1,.733-1.544,12.627,12.627,0,0,1,2.137-.837,1.453,1.453,0,0,1,1.975,1.06c.244.794-.148,1.443-1.142,1.853-.07-.17-.135-.344-.214-.51-.113-.24-.061-.384.166-.558.17-.131.231-.406.34-.615-.2-.083-.445-.275-.61-.227a17.664,17.664,0,0,0-2.141.776c-.148.065-.222.4-.24.615,0,.07.3.235.449.227C9.675,24.452,9.723,24.474,9.827,25.3Z" transform="translate(10.711 55.119)" fill="#fff"/>
    <path id="Path_42" data-name="Path 42" d="M12.544,24.029a17.451,17.451,0,0,1,1.068,1.557,1.356,1.356,0,0,1-.349,1.731,1.318,1.318,0,0,1-1.6.1c-.057-.026-.113-.061-.166-.092-.781-.471-.781-.471-1.517.052-.166.118-.336.231-.536.371l-.715-.811Zm.14,1.522c-.576.009-1.033.327-.933.693a.555.555,0,0,0,.44.3C12.749,26.519,12.836,26.314,12.683,25.551Z" transform="translate(15.05 62.706)" fill="#fff"/>
    <path id="Path_43" data-name="Path 43" d="M24.262,28.261c-.6.392-.741.371-1.182-.061a.42.42,0,0,0-.406-.022c-.153.126-.375.379-.336.493a17.881,17.881,0,0,0,.955,2.176c.087.166.467.179.715.262a5.909,5.909,0,0,0,.14-.715c.017-.218-.262-.467.135-.632.619-.262.68-.249.833.4a1.322,1.322,0,0,1-.811,1.714,1.387,1.387,0,0,1-1.949-.567,13.78,13.78,0,0,1-.937-2.028,1.423,1.423,0,0,1,.2-1.531A1.483,1.483,0,0,1,24.262,28.261Z" transform="translate(57.274 73.156)" fill="#fff"/>
    <path id="Path_44" data-name="Path 44" d="M22.6,32.077l-.894.327a2.027,2.027,0,0,0-.235-.392c-.157-.157-.406-.432-.5-.392-.24.1-.58.349-.589.545-.017.7-.471.624-.99.658v-4.77c-.026.031-.017.013,0,.009,1.116-.336,1.121-.336,1.626.715C21.545,29.862,22.064,30.948,22.6,32.077Zm-2.372-1.16.68-.161-.571-1.509-.109.022Z" transform="translate(50.852 75.588)" fill="#fff"/>
    <path id="Path_45" data-name="Path 45" d="M13.3,31.053l-.794-.567c.153-.406.471-.824-.044-1.142a.672.672,0,0,0-.576-.048c-.641.336-.641.353-1.208-.214l2.6-2.263.218-.188c.872-.759.872-.759,1.805.07Zm.615-3.449-.131-.092a2.659,2.659,0,0,0-.693.523c-.1.148.026.445.052.672.166-.1.4-.174.488-.327A3.5,3.5,0,0,0,13.915,27.6Z" transform="translate(21.623 69.567)" fill="#fff"/>
    <path id="Path_46" data-name="Path 46" d="M26.972,25.041a7.508,7.508,0,0,0-.68.824.746.746,0,0,0-.057.519.979.979,0,0,0,.68.083,3.629,3.629,0,0,0,.741-.637l.6.453a8.441,8.441,0,0,0-.571.951c-.057.126-.009.44.07.471a1.861,1.861,0,0,0,.746.1c.1,0,.183-.166.275-.257.523-.549.523-.549,1.121.031l-1.64,1.906L24.678,26.4l1.648-1.91Z" transform="translate(68.662 64.262)" fill="#fff"/>
    <path id="Path_47" data-name="Path 47" d="M15.212,30.26c-.214-.087-.432-.179-.65-.275-.2-.087-.4-.183-.593-.275-.567.92-.567.92.807,1.674l-.392.789-2.25-1.142,2.141-4.221,2.25,1.112-.358.746c-.344-.144-.65-.275-.959-.4a.449.449,0,0,0-.632.327c-.044.144.14.358.24.523.039.061.131.087.2.126C15.649,29.615,15.653,29.623,15.212,30.26Z" transform="translate(26.509 72.055)" fill="#fff"/>
    <path id="Path_48" data-name="Path 48" d="M30.095,23.583a.808.808,0,0,1,.606-.92.58.58,0,0,0,.288-.4c.013-.087-.153-.235-.27-.31a1.083,1.083,0,0,0-.41-.135c-.715-.144-.933.031-.937.746-.009.685-.026.715-.719.584-.593-.109-1.177-.266-1.805-.41l.51-2.355.728.148a9.782,9.782,0,0,0-.148,1.164c0,.166.131.44.262.48.262.083.358-.135.414-.388a1.248,1.248,0,0,1,1.347-1.025,2.068,2.068,0,0,1,1.613.719,1.294,1.294,0,0,1,.179,1.43A1.571,1.571,0,0,1,30.095,23.583Z" transform="translate(75.947 50.451)" fill="#fff"/>
    <path id="Path_49" data-name="Path 49" d="M7.408,15.933l.48-1.3,5.69,2.307-.541,1.251Z" transform="translate(10.627 31.135)" fill="#fff"/>
    <path id="Path_50" data-name="Path 50" d="M29.43,24.334c.214-.331.266-.772.824-.663.074.017.231-.153.279-.266a.38.38,0,0,0-.07-.327c-.344-.423-.628-.44-1.051-.1a1.766,1.766,0,0,1-.488.3c-.231.083-.384.013-.414-.279-.074-.706-.17-.767-1.046-.746a3.378,3.378,0,0,1,.327.759,3.326,3.326,0,0,1-.109.828c-.624-.34-.994-.7-1.007-1.317a1.206,1.206,0,0,1,.763-1.217c.846-.358,1.343.235,1.831.754,1.007-.4,1.592-.292,2,.349A1.534,1.534,0,0,1,31,24.282,1.157,1.157,0,0,1,29.43,24.334Z" transform="translate(75.369 53.166)" fill="#fff"/>
    <path id="Path_51" data-name="Path 51" d="M23.235,15.222l-1.094-.685,3.022-5.233,1.182.715Z" transform="translate(60.137 13.227)" fill="#fff"/>
    <path id="Path_52" data-name="Path 52" d="M31.212,19.856,26.86,20.968a.979.979,0,0,1,.305-1.086c.2-.153.567-.257.375-.6a2.841,2.841,0,0,0-.576-.567l-.157.1v-.929c.842.144,1.653.279,2.468.423.475.083.942.2,1.417.249.41.044.558.227.523.619C31.195,19.372,31.212,19.582,31.212,19.856Zm-1.321-.475-.013-.183a8.447,8.447,0,0,0-1.138-.14c-.1,0-.244.231-.3.384-.017.044.2.262.288.244C29.119,19.616,29.5,19.49,29.891,19.381Z" transform="translate(75.82 42.046)" fill="#fff"/>
    <path id="Path_53" data-name="Path 53" d="M14.824,15.377l-.855.937L9.53,12.19l.929-1Z" transform="translate(17.758 19.565)" fill="#fff"/>
    <path id="Path_54" data-name="Path 54" d="M12.778,9.379l1.208-.532,2.455,5.581-1.221.506Z" transform="translate(28.673 11.688)" fill="#fff"/>
    <path id="Path_55" data-name="Path 55" d="M20.077,29.263c.188-.894.488-1.491,1.369-1.243l-.576,4.788h-.855a9.359,9.359,0,0,0-1.565-4.352C19.358,27.864,19.672,28.561,20.077,29.263Z" transform="translate(47.737 75.93)" fill="#fff"/>
    <path id="Path_56" data-name="Path 56" d="M18.5,28.5a8.222,8.222,0,0,0-1.827,4.256l-1.19-.061a7.591,7.591,0,0,0-.109-4.753c1.077-.279,1.269.414,1.365,1.334C17.231,28.606,17.571,27.856,18.5,28.5Z" transform="translate(37.38 75.636)" fill="#fff"/>
    <path id="Path_57" data-name="Path 57" d="M15.793,27.963l-.4.689-.807-.419-2.241,3.122-.8-.562c.515-.767,1.02-1.5,1.5-2.246.515-.811.5-.82-.061-1.622l.453-.545Z" transform="translate(24.533 70.607)" fill="#fff"/>
    <path id="Path_58" data-name="Path 58" d="M24.524,27.673c-.558-.458-.562-.462-.087-.977.5-.541,1-1.073,1.526-1.64l.615.554c-.092.113-.174.2-.244.305a.6.6,0,0,0,.1.942c.759.637,1.483,1.312,2.219,1.975.022.017.026.057.061.131l-.606.767c-.554-.51-1.077-.994-1.6-1.474-.153-.144-.305-.283-.462-.419C25.326,27.2,25.326,27.207,24.524,27.673Z" transform="translate(66.693 66.161)" fill="#fff"/>
    <path id="Path_59" data-name="Path 59" d="M23.7,31.755l-2.324.781-1.326-4.522,1.029-.331c.183.641.358,1.26.536,1.884.057.2.1.4.166.6.1.331.1.794.331.964.209.157.658.035,1-.009C23.637,31.048,23.5,31.489,23.7,31.755Z" transform="translate(53.103 74.982)" fill="#fff"/>
    <path id="Path_60" data-name="Path 60" d="M30.5,24.687l-.353.924c-.772-.358-1.522-.676-2.241-1.051-.445-.235-.789-.279-1.081.2a2.066,2.066,0,0,1-.366.331,4.454,4.454,0,0,1-.366-2.041c0-.083.153-.187.253-.222a.5.5,0,0,1,.327.031C27.939,23.458,29.2,24.068,30.5,24.687Z" transform="translate(73.372 58.625)" fill="#fff"/>
    <path id="Path_61" data-name="Path 61" d="M11.5,20.371l.3,1a30.019,30.019,0,0,1-4.722.959c-.022-.17-.039-.292-.057-.414S7,21.67,6.974,21.483Z" transform="translate(9.169 50.414)" fill="#fff"/>
    <path id="Path_62" data-name="Path 62" d="M26.106,17.6a.842.842,0,0,1,.27-1.112,5.884,5.884,0,0,1,1.531-.946,18.683,18.683,0,0,1,2.542-.637c.453-.1.728.14.8.68A8.632,8.632,0,0,0,26.106,17.6Z" transform="translate(73.104 31.963)" fill="#fff"/>
    <path id="Path_63" data-name="Path 63" d="M32.107,18.729c.074.493-.048.763-.488.9a7.471,7.471,0,0,1-4.631-.1c-.379-.122-.449-.41-.436-.855A9.532,9.532,0,0,0,32.107,18.729Z" transform="translate(74.955 44.735)" fill="#fff"/>
    <path id="Path_64" data-name="Path 64" d="M31.282,18.41l-4.443.384-.078-.972,4.4-.375Z" transform="translate(75.658 40.585)" fill="#fff"/>
    <path id="Path_65" data-name="Path 65" d="M30.555,15.22l.305.92-4.142,1.413-.4-.807Z" transform="translate(74.17 33.104)" fill="#fff"/>
    <path id="Path_66" data-name="Path 66" d="M15.349,29.129c.157-.7.292-1.321.453-1.932a.366.366,0,0,1,.283-.2,3.072,3.072,0,0,1,.8.148c.571.2.61.336.449.916a3.653,3.653,0,0,0-.1.846c-.009.3-.109.436-.436.388C16.339,29.225,15.881,29.185,15.349,29.129Zm1.033.017c.214-.218.445-.34.462-.493.048-.4-.323-.41-.567-.379-.153.017-.279.253-.419.388Zm-.2-1.1.785-.366c-.065-.087-.14-.262-.2-.257C16.474,27.428,16.195,27.5,16.182,28.043Z" transform="translate(37.313 72.663)" fill="#fff"/>
    <path id="Path_67" data-name="Path 67" d="M16.379,26.809l.279,2.4-.166.044c-.266-.249-.519-.515-.807-.741-.44-.344-.706.336-1.16.222A3.84,3.84,0,0,1,16.379,26.809Z" transform="translate(34.547 72.048)" fill="#fff"/>
    <path id="Path_68" data-name="Path 68" d="M19.518,27.178a7.485,7.485,0,0,1,.863-.24.947.947,0,0,1,1.217.715c.209.811.057,1.16-.632,1.443-.087.039-.183.057-.27.1-.4.179-.641.126-.733-.371C19.862,28.295,19.684,27.784,19.518,27.178Zm.868,1.666c.824-.083.977-.257.881-.959-.065-.475-.5-.663-1.221-.5Z" transform="translate(51.322 72.412)" fill="#fff"/>
    <path id="Path_69" data-name="Path 69" d="M19.413,27.928l1.16.1-1.042.624.031.231,1.2.192.017.074-1.57.358-.4-2.158c.549-.14,1.038-.449,1.592-.2l.022.14a2.749,2.749,0,0,0-.61.1,2.135,2.135,0,0,0-.462.366Z" transform="translate(48.933 72.879)" fill="#fff"/>
    <path id="Path_70" data-name="Path 70" d="M18.575,28.049c.615.1.615.1,1.138-.885a3.1,3.1,0,0,1,.078,2.141,1.734,1.734,0,0,0-.222-.384c-.157-.148-.371-.388-.523-.362s-.3.305-.423.493a2.31,2.31,0,0,0-.174.427l-.2-.022-.192-2.071.231-.057Z" transform="translate(46.409 73.241)" fill="#fff"/>
    <path id="Path_71" data-name="Path 71" d="M14.453,27.572l-1.26-.166-.078.2.981.89-.1.131-1.417-.767,1.138-1.988c.458.336,1.068.392,1.326,1.051l-1.2-.475C13.616,27.093,14.309,27.184,14.453,27.572Z" transform="translate(27.987 68.913)" fill="#fff"/>
    <path id="Path_72" data-name="Path 72" d="M17.364,28.866l1.116.3L18.59,29a2.278,2.278,0,0,0-.323-.379,2.95,2.95,0,0,0-.423-.214c-.235-.131-.632-.183-.488-.571.092-.249.305-.58.519-.628.253-.052.562.157.837.279.061.022.074.153.1.222l-1.012-.14-.07.222a7.217,7.217,0,0,0,.715.4c.327.131.641.235.523.693a.869.869,0,0,1-.907.685A.677.677,0,0,1,17.364,28.866Z" transform="translate(43.953 73.366)" fill="#fff"/>
    <path id="Path_73" data-name="Path 73" d="M21.489,28.469l.715-.41-.031-.118a2.309,2.309,0,0,0-.545-.026c-.506.083-.619-.266-.746-.619s.044-.541.336-.685c.358-.179.754-.183.929.174a4.142,4.142,0,0,1,.4,1.435C22.579,28.631,21.929,28.77,21.489,28.469ZM21.2,26.921c.144.266-.061.719.453.706.087,0,.235-.209.231-.314C21.877,26.921,21.642,26.8,21.2,26.921Z" transform="translate(55.779 70.985)" fill="#fff"/>
    <path id="Path_74" data-name="Path 74" d="M13.411,27.391c.275.362.388.977,1.142.715a3.056,3.056,0,0,0-.366-.667c-.27-.3-.5-.632-.27-.964.113-.166.545-.2.811-.153.414.07.576.406.567.842L14.37,26.5l-.17.144c.1.188.2.375.31.558l.039.026a.742.742,0,0,1,.323.951.862.862,0,0,1-.619.371.85.85,0,0,1-.916-.619,2.029,2.029,0,0,1-.048-.462Z" transform="translate(30.39 70.354)" fill="#fff"/>
    <path id="Path_75" data-name="Path 75" d="M22.028,26.3a2.142,2.142,0,0,1,.458-.388.482.482,0,0,1,.445.078,5.914,5.914,0,0,1,.828.981.594.594,0,0,1-.131.855.685.685,0,0,1-.924-.052A1.986,1.986,0,0,1,22.028,26.3Zm.436-.035c-.157.689.41,1.5.977,1.269C23.388,26.712,23.109,26.35,22.464,26.267Z" transform="translate(59.757 68.954)" fill="#fff"/>
    <path id="Path_76" data-name="Path 76" d="M14.38,26.543l1.548.658c-.222.074-.336.157-.41.131-.467-.17-.589.092-.672.467a2.712,2.712,0,0,1-.253.719,2.107,2.107,0,0,1-.427.406l-.1-.078Z" transform="translate(33.015 71.155)" fill="#fff"/>
    <path id="Path_77" data-name="Path 77" d="M21.463,27a1.763,1.763,0,0,1,.249-.567.746.746,0,0,1,.571-.231.658.658,0,0,1,.375.462,9.666,9.666,0,0,1,.017,1.234l.741-.052.044.148-1.312.7.31-2.054-.179-.083-.689.51Z" transform="translate(57.858 69.973)" fill="#fff"/>
    <path id="Path_78" data-name="Path 78" d="M21,26.74l.632,2.032-.214.092a2.652,2.652,0,0,1-.305-.567c-.1-.41-.166-.811-.828-.562l0-.144.541-.885Z" transform="translate(53.883 71.699)" fill="#fff"/>
    <path id="Path_79" data-name="Path 79" d="M16.862,29.38c.087-.776-.144-1.5.305-2.176A1.88,1.88,0,0,1,16.862,29.38Z" transform="translate(42.397 73.376)" fill="#fff"/>
    <path id="Path_80" data-name="Path 80" d="M16.152,29.243a3.483,3.483,0,0,1,.392-2.115C16.863,27.9,16.645,29.09,16.152,29.243Z" transform="translate(40.011 73.12)" fill="#fff"/>
    <path id="Path_81" data-name="Path 81" d="M26.3,13.779a1.579,1.579,0,0,1-.545-.388c-.052-.078.192-.366.323-.545a.609.609,0,0,1,.275-.187c.2-.065.506-.2.589-.126a1,1,0,0,1,.318.689c-.022.174-.323.331-.515.471A1.609,1.609,0,0,1,26.3,13.779Z" transform="translate(72.242 23.993)" fill="#fff"/>
    <path id="Path_82" data-name="Path 82" d="M19.979,28.481l-.34-1.456" transform="translate(51.729 72.774)" fill="#fff"/>
    <path id="Path_83" data-name="Path 83" d="M9.51,45.218C9.087,26.255,25.352,10.832,43.809,10.6c19.478-.235,35.716,15.606,35.376,34.609C79.6,63.92,62.978,80.4,44.058,79.8,25.919,80.136,9.044,64.134,9.51,45.218Zm13.182-3.279c.349-.218.794-.349.964-.637a30.29,30.29,0,0,0,1.452-2.8c.166-.349-.052-.615-.414-.719a1.194,1.194,0,0,0-.432-.039c-1.792.144-3.619-.092-5.368.593a1.266,1.266,0,0,1-1.783-.693c-.2-.467-.044-.981.349-1,.5-.026.571-.305.571-.7v-2.8l.2-.013.344,2.11c1.19.122,1.448-.1,1.352-1.19a1.931,1.931,0,0,1,.676-1.792,2.561,2.561,0,0,0,.985-1.844,3.167,3.167,0,0,1,.161-.554,3.088,3.088,0,0,1,.279.549,1.258,1.258,0,0,0,1.2.99c.362.044.719.148,1.077.227l.031.183c-.445.2-.876.419-1.33.6a1.3,1.3,0,0,0-.972,1.116,3.522,3.522,0,0,1-.231.672,2.609,2.609,0,0,1-.148-.406c-.061-.371-.275-.484-.641-.458-.388.026-.344.327-.4.549a1.674,1.674,0,0,0-.013.571c.035.283-.039.632.366.741s.815.536,1.26.017a.653.653,0,0,1,.532-.122c.977.2,1.949.427,2.943.65a4.629,4.629,0,0,0-.362.855.693.693,0,0,0,.166.584.646.646,0,0,0,.567-.009,2.513,2.513,0,0,0,.733-.528c.7-.746,1.382-1.509,2.049-2.281.855-.99,1.67-2.019,2.542-3a6.232,6.232,0,0,1,5.106-2.106c.449.013.632.2.645.628.017.571.065,1.147.1,1.718A3.019,3.019,0,0,0,39.8,34.771a18.74,18.74,0,0,0,5.69.327,1.12,1.12,0,0,0,1.212-1.26c.022-.972-.017-1.945-.087-2.913a.887.887,0,0,0-1.1-.907,6.141,6.141,0,0,0-1.526.523,11.87,11.87,0,0,0-1.016.632c-.283.166-.493.126-.515-.262-.017-.318-.039-.632-.065-.951a1.728,1.728,0,0,0-.641-1.286.676.676,0,0,1,.017-1.177c.353-.227.353-.467.31-.833a8.252,8.252,0,0,1,0-1.7c.074-.706.244-1.4.336-2.11a.646.646,0,0,1,.379-.593,1.678,1.678,0,0,0,.741-.506,1.731,1.731,0,0,0,.305-1.116c-.122-.48-.942-.715-1.443-.48a6.631,6.631,0,0,1-2.455.593c-.842.061-1.06.344-1.147,1.182a3.384,3.384,0,0,1-.218,1.16,8.552,8.552,0,0,1-.9,1.234.3.3,0,0,1-.052-.083,7.606,7.606,0,0,1-.379-5.171c.061-.244.4-.458.658-.61.545-.318,1.116-.593,1.683-.872a1.779,1.779,0,0,1,.7-.262c.833-.009,1.666.031,2.5.078a1.676,1.676,0,0,1,1.4.946c.262.445.645.824.924,1.26a2.408,2.408,0,0,1,.331.855c.087.523.1,1.06.17,1.587a3.173,3.173,0,0,1-.628,2.865,1.372,1.372,0,0,0-.288.593c-.17.693-.3,1.4-.462,2.093a.969.969,0,0,0,.353,1.068,2.835,2.835,0,0,0,.924.48c.68.174,1.382.283,2.076.4a4.161,4.161,0,0,1,3.558,2.472,11.129,11.129,0,0,1,.375,1.134,9.183,9.183,0,0,0,1.91,3.5.526.526,0,0,0,.711.174c1-.5,2.006-.985,3.013-1.478.632-.305,1.26-.624,1.9-.92a2.367,2.367,0,0,1,.558-.07c-.131.17-.161.231-.209.262a21.888,21.888,0,0,1-5.939,2.765c-.344.1-.484,0-.584-.323a5.806,5.806,0,0,0-1.339-2.5,4.6,4.6,0,0,1-.658-1.142c-.414-.8-.759-1.644-1.234-2.407a1.773,1.773,0,0,0-1.635-.842c-.336.009-.5.131-.528.462-.1,1.251-.24,2.5-.292,3.759-.048,1.334-.017,1.347,1.273,1.77a.557.557,0,0,1,.458.65,2.42,2.42,0,0,0,.824,2.006c.894.82,1.775,1.661,2.634,2.52a1.405,1.405,0,0,0,1.836.262,10.575,10.575,0,0,0,1.814-1.238c1.112-.985,2.15-2.054,3.257-3.048.6-.545,1.286-.99,1.919-1.5a1.1,1.1,0,0,0,.344-.523c.222-.946.392-1.9.619-2.843a4.284,4.284,0,0,1,.789-2.167c.148-.161.144-.467.231-.794-1.129.231-1.749,1.06-2.612,1.631.249-.4.471-.741.676-1.094.153-.262.092-.432-.187-.619a3.914,3.914,0,0,1-.75-.767c-.122-.144-.153-.4-.292-.48a1.854,1.854,0,0,0-.781-.2c-.061,0-.179.292-.2.458-.057.536-.061,1.081-.131,1.618a.661.661,0,0,1-.318.449c-1.243.493-2.5.231-2.664-1.347a3.851,3.851,0,0,0-1.273-2.7c-.541-.458-.811-.449-1.251.113A1.529,1.529,0,0,0,53.15,27c-.113.327-.2.667-.3,1-.087.283-.253.519-.58.453a11.118,11.118,0,0,1-1.112-.318l-.017-.183a2.477,2.477,0,0,1,.632-.34,1.271,1.271,0,0,0,.985-.82,2.42,2.42,0,0,1,2.246-1.657c.026,0,.048-.035.144-.1-.052-.968-.1-1.984-.166-3-.039-.7.148-.933.842-.842a.994.994,0,0,0,.959-.366,11.652,11.652,0,0,1,5.014-2.9c.392-.131.571-.314.5-.658a1.781,1.781,0,0,0-.414-.859,4.082,4.082,0,0,0-1.038-.685,35.979,35.979,0,0,0-14.934-4.138,33.516,33.516,0,0,0-16.086,3.3A33.833,33.833,0,0,0,12.175,34.356a7.027,7.027,0,0,0-.453,2.952c.017.257.087.423.375.453a10.809,10.809,0,0,0,3.632.122.482.482,0,0,1,.406.122,8.352,8.352,0,0,1,.484.933c-.24.017-.392.031-.549.039a10.525,10.525,0,0,1-3.41-.5,3.046,3.046,0,0,0-.994-.087.638.638,0,0,0-.584.7c0,.109.375.288.584.3,1.09.061,2.18.057,3.27.113a6.482,6.482,0,0,1,1.06.231l-.013.231a5.209,5.209,0,0,1-.951.157c-.929-.017-1.858-.122-2.786-.109-.9.013-1.3.536-1.243,1.487a12.469,12.469,0,0,0,4.234-.235,5.711,5.711,0,0,1,.881-.235c.8-.135,1,.039,1.077.855-.65.083-1.3.179-1.949.249a16.26,16.26,0,0,1-1.718.126c-.737,0-1.474-.07-2.211-.118a.58.58,0,0,0-.7.589c-.113.99.2,1.4,1.2,1.478a3.721,3.721,0,0,0,.624,0q2.512-.235,5.023-.48c.51-.048,1.02-.122,1.531-.157a9.985,9.985,0,0,1,1.142,0,22.524,22.524,0,0,0,2.289.131c.689-.035.942-.663.6-1.273C22.919,42.249,22.792,42.087,22.692,41.939Zm54.183,1.522c.262-.074.414-.131.567-.161.519-.1.772-.366.7-.929a42.221,42.221,0,0,0-.567-4.343A35.312,35.312,0,0,0,66.641,19.814a13.64,13.64,0,0,0-1.535-1.147.751.751,0,0,0-1.02.026,1.821,1.821,0,0,1-1.221.584,1.683,1.683,0,0,0-1.369,1,.62.62,0,0,1-.667.388,2.476,2.476,0,0,0-.968.17c-.51.235-.959.624-1.483.828-.911.366-.911.331-.876,1.312a3.272,3.272,0,0,0,1.086,2.551,5.012,5.012,0,0,1,.811,1.121c.31.48.562,1,.89,1.469a6.523,6.523,0,0,0,.776.776l.126-.083c0-.218,0-.44,0-.658.061-1.945.118-3.885.187-5.826,0-.214-.083-.523.305-.528.606,0,1.212,0,1.831,0a4.78,4.78,0,0,1,.148.65c.052.794.1,1.587.118,2.381.009.336.07.519.471.545.606.044,1.2.161,1.81.253,1.36.2,1.914.981,1.648,2.477-.8-.4-1.578-.75-2.328-1.164a.924.924,0,0,0-1.439.6,1.132,1.132,0,0,0,.419,1.238.993.993,0,0,1,.475.933l-.855-.349a1.777,1.777,0,0,0-.083.279,1.225,1.225,0,0,1-.881,1.173c-.218.07-.353.392-.589.667,1.378.366,1.622-.807,2.272-1.356a.449.449,0,0,1,.118.1,2.353,2.353,0,0,1,.174.283,2.485,2.485,0,0,1-.275,2.821,2.925,2.925,0,0,0-.685,2.119c.078,1.43.092,2.865.153,4.3.031.763.2,1.557-.672,2.036-.07.039-.078.283-.039.406s.2.279.27.262c.475-.131.344.209.388.419H60.976a1.691,1.691,0,0,0,.632-1.644c.022-1.016-.009-2.036-.017-3.057,0-.6,0-1.195,0-1.788l-.157-.1a8.233,8.233,0,0,0-1.134.65A10.888,10.888,0,0,0,59.267,38c-.811.855-1.583,1.757-2.451,2.56a6.719,6.719,0,0,1-2.751,1.609,1.769,1.769,0,0,1-1.792-.384c-.519-.48-1.016-.977-1.552-1.435s-1.112-.894-1.735-1.387c-.2.384-.375.663-.506.964-.872,1.984-.153,3.58,1.958,4.129a12.993,12.993,0,0,0,2.673.279,2.934,2.934,0,0,1,2.08.828,1.977,1.977,0,0,0,1.609.6,4.1,4.1,0,0,1,3.554,1.565A13.028,13.028,0,0,1,61.788,49.4c.471.85.824,1.762,1.238,2.638a2,2,0,0,0,2.259,1.212c.863-.118,1.6-.863,1.443-1.557a2.437,2.437,0,0,1,.183-1.574,6.212,6.212,0,0,0,.192-.663H64.857c.083-.48.318-.628.667-.619.318.009.641.017.964.031a4.02,4.02,0,0,0,2.52-.432A12.738,12.738,0,0,1,72.6,46.679a6.671,6.671,0,0,0,.929-.436c.266.436.292.567-.009.846a7.561,7.561,0,0,1-1.2.937c-1.055.637-2.132,1.243-3.2,1.84a9.168,9.168,0,0,1-1.286.619c-.632.24-.7.327-.519.972.1.375.3.462.637.249a4.983,4.983,0,0,0,.445-.358,12.09,12.09,0,0,1,1.483-1.2c2.4-1.408,4.831-2.769,7.243-4.164a3.668,3.668,0,0,0,.964-.767.87.87,0,0,0-.423-1.456C77.433,43.674,77.215,43.592,76.875,43.461ZM36.951,56.1l.052.17a6.058,6.058,0,0,1-.606.51.573.573,0,0,0-.179.894,2.079,2.079,0,0,0,.283.384.747.747,0,0,1,.035,1.112c-.358.449-.772.855-1.121,1.312a11.951,11.951,0,0,0-.885,1.347.537.537,0,0,0,.087.484c.362.423.279.859-.253,1.029a5.145,5.145,0,0,1-.794.2c-.358.044-.458.244-.423.562.017.14.035.283.061.423.126.75.567.946,1.186.506a10.156,10.156,0,0,0,.846-.746l.253.536.078-.131,1.544.663c.279-.4.31-1.012.942-1.212a6.929,6.929,0,0,1-.27,1.278,7.7,7.7,0,0,0-.314,1.042c-.057.406.179.563.554.41a.817.817,0,0,0,.414-.358c.362-.815.689-1.644,1.025-2.468a.436.436,0,0,0-.331-.654c-.305-.087-.606-.179-.92-.27.161-.842.323-1.648.471-2.459a3.9,3.9,0,0,0-.51-3.153,6.3,6.3,0,0,1-.475-.937.665.665,0,0,1,.144-.82c.445-.471.41-.615-.126-1.016-.824-.61-.828-.615-.44-1.592a5.754,5.754,0,0,1,.379-.772,1.385,1.385,0,0,1,1.574-.75,6.5,6.5,0,0,0,2.285.1c.737-.1,1.151.379,1.5.92.31.475.074.881-.183,1.282-.026.044-.044.1-.078.179a3.942,3.942,0,0,0,2.368.406,4.92,4.92,0,0,0-.275-.846c-.314-.589-.663-1.16-1.007-1.735A3.883,3.883,0,0,1,43.2,50c.515,0,1.007.009,1.5,0a.484.484,0,0,1,.545.475,8.6,8.6,0,0,0,.183.933.4.4,0,0,0,.275.235.908.908,0,0,0,.876-.475c.078-.166.192-.318.314-.519a.773.773,0,0,1-.1,1.116c-.24.209-.536.353-.767.567a.8.8,0,0,0-.3.519,4.436,4.436,0,0,1-.44,2.267.655.655,0,0,0,.022.606,2.214,2.214,0,0,1,.562,1.622c.017.371.057.828.449.916.214.048.562-.235.767-.445.445-.458.833-.968,1.247-1.461l.68.624c.58-.65,1.16-1.247,1.666-1.9a1.123,1.123,0,0,0,.109-.794c-.1-.689-.24-1.369-.388-2.045a.737.737,0,0,0-.262-.371c-.262-.218-.571-.379-.811-.615-.209-.209-.366-.305-.65-.122a4.942,4.942,0,0,1-.737.323c-.209-.733-.44-1.4.362-1.849a.451.451,0,0,0,.144-.187A3.185,3.185,0,0,1,49.914,47.8c.562-.288.493-.855-.044-1.195a1.782,1.782,0,0,0-1.91-.113,7.24,7.24,0,0,1-.916.423,5.914,5.914,0,0,1-.872.157c.14-.323.235-.519.31-.724.113-.323.1-.584-.323-.676-.358-.074-.706-.2-1.06-.305a1.442,1.442,0,0,0-1.644.6.535.535,0,0,0-.013.488,2.044,2.044,0,0,0,1.483.863c.331.061.663.131.99.214.358.087.406.34.157.545a1.937,1.937,0,0,1-.911.453c-.781.078-1.57.031-2.355.078a1.106,1.106,0,0,1-1.23-.781,2.534,2.534,0,0,0-1.923-1.64,4.874,4.874,0,0,1-.855-.353,1.557,1.557,0,0,1,1.583-.571,17.33,17.33,0,0,0,1.962,0c.153-.013.288-.305.436-.471a2.078,2.078,0,0,0-.458-.34.761.761,0,0,0-.471.022,9.571,9.571,0,0,1-4.055.2,1.818,1.818,0,0,0-.828.14c-.545.222-1.051.532-1.6.746a2.567,2.567,0,0,0-1.836,2.25,45.131,45.131,0,0,0,.017,4.858,1.925,1.925,0,0,0,.65,1.068c.1.1.51-.131.776-.2.048-.013.092-.022.166-.035.558.724.406,1.635.615,2.433Zm-4.138-7.291a14.345,14.345,0,0,1,.523-1.993c.266-.641.75-1.19,1.016-1.831a2.066,2.066,0,0,0,.061-1.238c-.288-1.138-.65-2.259-1.012-3.379-.192-.589-.436-1.16-.667-1.735-.135-.34-.379-.445-.667-.187a14.584,14.584,0,0,0-2.015,1.892,28.223,28.223,0,0,1-2.7,3.157,2.5,2.5,0,0,0-.689,2.634,22.49,22.49,0,0,0,.924,2.4c.523,1.23,1.055,2.455,1.631,3.663a1.077,1.077,0,0,1,.092.842,9.039,9.039,0,0,0-.283,1.487c-.052.458-.022.92-.052,1.382a2.134,2.134,0,0,1-2.411,2.3c-.209,0-.419,0-.624-.009-1.273-.07-1.6-.58-1.108-1.744.318-.746.689-1.469.994-2.219a10.209,10.209,0,0,0,.327-1.286,1.973,1.973,0,0,0-1.19,1.195c-.349.663-.641,1.356-1.012,2-.353.606-.759.61-1.225.092-.14-.157-.283-.305-.44-.475-.305.44-.314.549-.183,1.286.039.214.122.41-.192.545-1.012.436-1.02.453-.654,1.526a.466.466,0,0,1-.235.65c-.881.558-.929.837-.689,1.836a9.539,9.539,0,0,1,.2,1.836c.017.48-.048.968-.078,1.526.379-.131.658-.235.946-.323.794-.244,1.217-.031,1.448.776.144.5.218,1.025.362,1.531.052.179.227.467.34.467a2.909,2.909,0,0,1,1.452.532.962.962,0,0,0,.558.109,14.2,14.2,0,0,0,1.6-.331c.087-.022.174-.244.17-.371-.017-.353-.078-.706-.14-1.177.615.083,1.151.135,1.679.24s1.02.257,1.531.392c.362.1.615-.039.876-.419a5.368,5.368,0,0,0-.833-.536c-.589-.249-1.208-.423-1.8-.667a1.219,1.219,0,0,1-.528-.445c-.174-.27-.1-.5.283-.493s.767.013,1.151.048c.654.065,1.3.161,1.958.214.126.009.257-.1.388-.161-.092-.113-.166-.279-.283-.331-.3-.118-.61-.187-.916-.275a14.345,14.345,0,0,1-1.561-.471c-.209-.087-.336-.375-.5-.576a7.891,7.891,0,0,1,.654-.5.645.645,0,0,1,.379-.031c.384.035.763.1,1.147.126.567.039,1.134.061,1.709.092-.035-.754-.153-.89-.759-1.012-.689-.144-1.382-.275-2.062-.453-.157-.044-.4-.3-.371-.388a1.09,1.09,0,0,1,.414-.58,1,1,0,0,1,.606-.057c.48.048.951.148,1.426.2a2.085,2.085,0,0,0,1.535-.227,6.463,6.463,0,0,0-1.09-.6c-.558-.183-1.151-.266-1.731-.4-.362-.083-.706-.227-.68-.667.031-.488.475-.423.776-.436.528-.022,1.06.044,1.587.057a1.6,1.6,0,0,0,1.238-.336.663.663,0,0,0-.65-.558c-.728-.1-1.456-.227-2.18-.353-.445-.078-.528-.4-.515-.789.017-.419.353-.3.576-.314.859-.052,1.718-.087,2.577-.126-.017-.728-.379-1.064-1.182-1.147-.462-.044-.933-.052-1.391-.126a.584.584,0,0,1-.515-.728c.022-.109.366-.192.571-.214.632-.074,1.273-.1,1.906-.183.122-.013.327-.235.31-.327a.928.928,0,0,0-.323-.462c-.083-.074-.24-.065-.366-.078-.624-.065-1.247-.122-1.866-.188-.379-.044-.624-.279-.571-.628.022-.157.34-.34.545-.375.44-.078.9-.048,1.343-.1a5.852,5.852,0,0,0,.8-.2l.039-.2a4.837,4.837,0,0,0-.92-.5c-.532-.157-1.1-.214-1.64-.344-.318-.074-.855,0-.807-.471.048-.445.562-.4.92-.384C30.985,48.715,31.9,48.767,32.812,48.811ZM51.118,62.843a5.9,5.9,0,0,0-.781,1.474,19.972,19.972,0,0,0-.279,2.891c-.039.872.1,1.047.929,1.326a8.256,8.256,0,0,1,2.568,1.461A11.057,11.057,0,0,0,55.173,71.1a2.131,2.131,0,0,0,1.012.192.579.579,0,0,0,.436-.344,1.849,1.849,0,0,0-.576-2.071c-.554-.436-1.09-.89-1.648-1.317a2.642,2.642,0,0,1-1.129-2.673,21.479,21.479,0,0,1,.741-3.052,32.57,32.57,0,0,0,1.853-13.042,8.715,8.715,0,0,0-.541-2.451A1.407,1.407,0,0,0,52.9,45.9a3.351,3.351,0,0,0-.576.759,9.275,9.275,0,0,0-1.068,4.169.7.7,0,0,0,.218.44c.3.31.628.593.933.894a.518.518,0,0,1,.044.811,8.6,8.6,0,0,0-1.949,4.6c-.1,1.06-.109,2.132-.222,3.192a1.885,1.885,0,0,0,.859,2.11C51.161,62.882,51.174,62.917,51.118,62.843ZM27.471,49.919a1.87,1.87,0,0,0-.074-.362c-.445-1-.911-2-1.352-3a3.286,3.286,0,0,1,.488-3.7c.318-.379.693-.715.985-1.108a3.176,3.176,0,0,0,.68-1.186,2.211,2.211,0,0,1,1.509-1.7,5.275,5.275,0,0,0,1.932-1.387c.34-.379.7-.746,1.064-1.1.222-.222.467-.419.763-.676l.907,1.4c.61-.715,1.23-1.387,1.779-2.1a3.128,3.128,0,0,0,.7-1.317,4.725,4.725,0,0,0-.528-2.913,1.7,1.7,0,0,0-2.59-.719,10.132,10.132,0,0,0-1.609,1.282A59.448,59.448,0,0,0,26.616,37.7a16.261,16.261,0,0,0-3.283,7.234,19.489,19.489,0,0,0-.545,4.631,1.9,1.9,0,0,0,1.6,1.94,23.652,23.652,0,0,0,2.621.2l-.8-2.023Zm-5.546-3.244-.126-.118c-.488.057-.977.135-1.469.166-2.289.144-4.578.275-6.868.41-.672.044-1.347.057-2.019.131-.532.057-.615.218-.519.733a2.1,2.1,0,0,1,.118.933,1.435,1.435,0,0,0,.475,1.535,4.775,4.775,0,0,1,.366.5.991.991,0,0,1,.1.933,3.78,3.78,0,0,0-.174,1.578A26.264,26.264,0,0,0,15.3,62.2c.131.218.436.331.737.545.078-.34.135-.519.157-.706.2-1.783.323-3.58.589-5.355a15.023,15.023,0,0,1,2.084-6.2,33.234,33.234,0,0,1,2.25-2.721C21.406,47.416,21.658,47.041,21.924,46.674ZM71.511,65.32c-.035-.187-.013-.327-.074-.4a9.491,9.491,0,0,0-.99-1.06.578.578,0,0,1-.218-.759,12.631,12.631,0,0,0,.384-1.6c.07-.336.1-.676.14-1.016l.126.009c.035.27.07.545.1.82.065.632.1,1.269.209,1.892a.551.551,0,0,0,.41.336c.1.009.266-.218.344-.366.052-.1,0-.249-.009-.375-.183-1.967-.375-3.929-.554-5.9-.074-.837-.065-.837-.9-.658a.508.508,0,0,1-.148-.039c0-.188.009-.392,0-.593-.017-.7-.031-1.4-.078-2.1-.013-.131-.187-.349-.3-.358a3.1,3.1,0,0,1-2.39-.828,3.118,3.118,0,0,1-1.7,1.648c-.1.044-.174.288-.166.432.061,1.112.144,2.224.227,3.336.022.358.057.711.092,1.1a1.758,1.758,0,0,1,.619-.1c.366.087.946.166,1.02.388a6.78,6.78,0,0,1,.153,1.722c-.689.039-.711.057-1.086.571a3.352,3.352,0,0,0-.645,2.11c.035,1.317.1,2.638.17,3.959.048.92.51,1.256,1.435,1.108a3.633,3.633,0,0,0,2.35-1.531c.6-.789.584-.955-.231-1.487-.493-.323-1.025-.589-1.535-.885a6.038,6.038,0,0,1-.89-.567,3.6,3.6,0,0,1-.48-.645l.113-.118C68.625,63.676,69.815,65,71.511,65.32ZM41.4,36.48c-.031-.166-.052-.24-.057-.314-.052-.672-.166-.785-.837-.815a1.762,1.762,0,0,0-.48,0,16.181,16.181,0,0,1-3.58.288.716.716,0,0,0-.789.658c-.07.423-.192.837-.283,1.256-.022.092-.061.231-.017.275.414.423.166.715-.126,1.086-.562.728-.353,1.234.545,1.4.632.113,1.278.144,1.91.231a4.559,4.559,0,0,1,2.411.7,1.378,1.378,0,0,0,1.561.209,2.546,2.546,0,0,1,2.267.031c.658.327.672.266,1.156-.305.353-.41.741-.789,1.195-1.265.126.362.2.554.253.75.065.24.2.31.458.3.815-.031,1.156-.253,1.278-1.06a21.461,21.461,0,0,0,.174-2.372.759.759,0,0,0-.244-.528,12.205,12.205,0,0,0-1.435-1.121,1.166,1.166,0,0,0-.9-.214c-.227.1-.379.528-.41.828-.044.453-.2.584-.619.453-.035-.318-.044-.624-.1-.916a.5.5,0,0,0-.257-.336,2.518,2.518,0,0,0-2.76.506A3.218,3.218,0,0,1,41.4,36.48Zm7.273,39.867c-.031-.214-.052-.4-.083-.589A10.207,10.207,0,0,0,47.15,72.4a2.49,2.49,0,0,1-.336-.924c-.331-2.987-.619-5.983-.964-8.965a15.928,15.928,0,0,0-.576-2.939,1.629,1.629,0,0,0-2.468-.994,4.276,4.276,0,0,0-1.788,1.548,2.741,2.741,0,0,0-.3,2.978c.711,1.365,1.469,2.708,2.237,4.042.349.606.785,1.164,1.142,1.766a7.052,7.052,0,0,1,.872,5.856c-.14.471-.2.968-.336,1.439a.548.548,0,0,0,.41.772c.475.144.964.231,1.439.366.379.1.733.2,1.073-.118.074-.07.3-.031.436.017.327.118.493-.009.567-.31C48.61,76.735,48.641,76.53,48.676,76.347Zm14.01-7.936.109.118c0,.794-.017,1.587.013,2.381a3.248,3.248,0,0,0,.2.972c.109.31.392.34.685.27a.441.441,0,0,0,.353-.536c-.039-.541-.065-1.081-.1-1.622q-.517-7.312-1.038-14.625c-.031-.48-.2-.641-.763-.676-.283,3.676.419,7.343.179,11.019a2.178,2.178,0,0,1-.166-.733c-.2-3.113-.4-6.227-.6-9.34-.074-1.064-.161-2.128-.283-3.187a.7.7,0,0,0-.371-.515,3.8,3.8,0,0,0-.972-.026,2.4,2.4,0,0,0-.031.262c-.017,4.269-.044,8.533-.044,12.8,0,1.051.087,2.1.157,3.148a1.424,1.424,0,0,0,.2.763,1.4,1.4,0,0,0,1.674.061C62.136,68.747,62.415,68.59,62.686,68.411ZM74.481,59.69l.174,0c.1-.122.2-.235.283-.362A9.47,9.47,0,0,0,76.744,53.8c-.017-1.775-.253-3.545-.4-5.315a7.223,7.223,0,0,0-.161-.824A4.5,4.5,0,0,0,74.136,48.7a.79.79,0,0,0-.283.541c.022,2.56.031,5.119.131,7.674A19.8,19.8,0,0,0,74.481,59.69ZM62.446,73.5l-.092-.148A7.126,7.126,0,0,0,59.5,74.1a10.594,10.594,0,0,1-3.833,1.016c-1.792.1-3.584.14-5.381.183-.331.009-.48.074-.5.445a2.333,2.333,0,0,1-1.4,2.067c-.288.14-.589.253-.868.406-.1.048-.148.17-.222.257.1.052.209.148.31.148a13.22,13.22,0,0,0,1.439-.1,37.224,37.224,0,0,0,7.557-1.98c1.509-.567,2.969-1.273,4.417-1.984A9.427,9.427,0,0,0,62.446,73.5ZM35.224,76.94a2.561,2.561,0,0,0,.14.358c.305.519.868.584,1.369.693a45.231,45.231,0,0,0,9.27.781,1.022,1.022,0,0,0,.231-.078,1.078,1.078,0,0,0-.157-.126,5.4,5.4,0,0,1-2.3-2.1.691.691,0,0,0-.532-.187c-1.679.087-3.362.174-5.036.31C37.225,76.661,36.248,76.818,35.224,76.94Zm3.567-6.51-.083-.231c-.846,0-1.7.009-2.546,0-.283,0-.615-.078-.571-.414.022-.174.318-.344.528-.449.279-.144.61-.2.885-.344a.766.766,0,0,0,.113-1.012c-.641-.5-1.391-.8-2.128.013a2.224,2.224,0,0,0-.379.545,1.6,1.6,0,0,1-1.94.924,5.743,5.743,0,0,0-.99-.009c.2.855.567,1.313,1.435,1.369,1.609.1,3.231.07,4.849.044C38.241,70.857,38.512,70.578,38.791,70.43Zm-7.967,4.805.174.017c.2-.562.4-1.129.606-1.692a1.041,1.041,0,0,1,1.025-.767c1.3-.052,2.594-.118,3.885-.244,2.359-.231,4.714-.51,7.068-.776a2.192,2.192,0,0,0,.51-.2l-.022-.2a3.145,3.145,0,0,0-.807-.144c-1.932.144-3.859.362-5.8.471-1.731.092-3.453.528-5.211.118-.658-.157-.872.057-1.055.706a8.3,8.3,0,0,0-.275,1.16C30.863,74.193,30.855,74.716,30.824,75.235ZM56.9,58.06l-.153,0a2.12,2.12,0,0,0-.209.5,9.448,9.448,0,0,0-.2,1.557c.013,2.5.057,5,.092,7.5.009.432.24.685.593.645.414-.048.31-.392.31-.637,0-1.448-.009-2.9-.044-4.347-.035-1.465-.092-2.926-.161-4.387A4.227,4.227,0,0,0,56.9,58.06ZM58.16,21.428c.606-.07.9-.488,1.291-.759a2.521,2.521,0,0,1,.828-.384,1.966,1.966,0,0,0,1.452-.815,1.284,1.284,0,0,1,.61-.427,6.065,6.065,0,0,1,1.1-.331c.406-.078.5-.279.362-.637-.048-.135-.065-.283-.118-.414-.153-.366-.423-.488-.767-.262a9.524,9.524,0,0,0-.737.606,2.457,2.457,0,0,1-.449.344c-1.26.619-2.52,1.243-3.794,1.836-.388.179-.584.453-.423.811C57.606,21.2,57.937,21.288,58.16,21.428ZM27.406,69.793l.061-.166a3.716,3.716,0,0,0-.82-.414,3.144,3.144,0,0,0-2.93.807,1.191,1.191,0,0,0,.458,2.084,2.729,2.729,0,0,0,1.26.044.823.823,0,0,0,.549-.51c.039-.144-.227-.427-.419-.558-.593-.4-.61-.785.013-1.129a1.588,1.588,0,0,1,.641-.148C26.612,69.776,27.009,69.793,27.406,69.793ZM40.251,58.962a1.243,1.243,0,0,0,1.212-.445,2.718,2.718,0,0,1,2.132-.785c.453.031.911,0,1.4,0-.17-.772-1.02-.7-1.339-1.134l.715-.955-.126-.118a3.2,3.2,0,0,0-.593.27,10.242,10.242,0,0,1-2.856,1.526,1.072,1.072,0,0,0-.519.658A3.43,3.43,0,0,0,40.251,58.962Zm9.166.658a4.284,4.284,0,0,0-.693.467c-.5.536-.964,1.108-1.461,1.648a1.745,1.745,0,0,0-.515,1.291,13.241,13.241,0,0,0,.1,1.666,17.394,17.394,0,0,0,.515,1.967c.044.153.2.275.305.414l.192-.07c-.135-.937-.24-1.875-.414-2.8a1.785,1.785,0,0,1,.519-1.823,8.2,8.2,0,0,0,.872-.951A2.624,2.624,0,0,0,49.417,59.621Zm7.439-9.153a4.563,4.563,0,0,0-.118.58q-.118,1.517-.209,3.035c-.031.471.166.7.6.75.458.048.445-.358.453-.58.039-1.06.035-2.119.013-3.179C57.593,50.682,57.3,50.512,56.856,50.468ZM57.95,27.14a1.424,1.424,0,0,0-.153-.174c-.545-.458-1.094-.907-1.64-1.365a1.174,1.174,0,0,0-1.286.048.6.6,0,0,0-.048.51c.122.27.362.488.48.763a1.21,1.21,0,0,0,1.517.7C57.227,27.554,57.654,27.554,57.95,27.14ZM48.122,71.293a7.6,7.6,0,0,0,3.083-.235c-.249-.192-.406-.318-.576-.436a7.171,7.171,0,0,1-.951-.676,4.96,4.96,0,0,1-.689-.972A.819.819,0,0,0,48,68.581a2.075,2.075,0,0,0,.227.628,1.22,1.22,0,0,1-.092,1.927Zm8.712-46.421c0-.929.039-1.862-.017-2.791-.022-.44-.475-.231-.741-.288-.24-.057-.41.039-.414.314,0,.6-.031,1.208,0,1.81C55.7,24.7,55.966,24.912,56.834,24.872Zm1.692,3.985c-.187-.323-.288-.711-.532-.85a1.129,1.129,0,0,0-1.278.222,1.316,1.316,0,0,0,.192,1.26.843.843,0,0,0,1.081.244C58.229,29.595,58.325,29.207,58.526,28.858ZM40.613,70.147a3.7,3.7,0,0,0,2.145.135c.432-.1.453-.375.388-.715-.074-.388-.484-.82-.75-.733A2.944,2.944,0,0,0,40.613,70.147Z" transform="translate(17.66 17.587)" fill="#fff"/>
    <path id="Path_84" data-name="Path 84" d="M16.061,14.03c.475-.231.837-.166,1.029.2a13.355,13.355,0,0,1,.706,1.714.589.589,0,0,1-.292.733c-.344.209-.667.449-1,.676l-.118-.1c.122-.3.257-.6.371-.9a9.842,9.842,0,0,0,.4-1.212.674.674,0,0,0-.554-.894A4.234,4.234,0,0,1,16.061,14.03Z" transform="translate(39.705 28.652)" fill="#fff"/>
    <path id="Path_85" data-name="Path 85" d="M18.083,13.332c-.074.916-.445,1.112-1.7.911C16.282,13.314,16.9,13.2,18.083,13.332Z" transform="translate(40.749 26.603)" fill="#fff"/>
    <path id="Path_86" data-name="Path 86" d="M16.315,21.77a5.653,5.653,0,0,1-.719,4.138.44.44,0,0,1-.41.14,23.563,23.563,0,0,1-2.023-1.5c-.17-.148-.179-.528-.192-.8a2.445,2.445,0,0,1,.113-.75c.353-1.269.358-1.265,1.666-1.225C15.26,21.783,15.77,21.77,16.315,21.77Z" transform="translate(29.313 55.076)" fill="#fff"/>
    <path id="Path_87" data-name="Path 87" d="M12.29,24.366a3.057,3.057,0,0,1,.781-2.233,3.781,3.781,0,0,1,1.02-.536,3.954,3.954,0,0,1,.48.985,3.224,3.224,0,0,1-.344,2.215,1.324,1.324,0,0,1-.432.554,2.639,2.639,0,0,1-1.138.336c-.113,0-.244-.541-.336-.846A1.9,1.9,0,0,1,12.29,24.366Z" transform="translate(27.033 54.534)" fill="#fff"/>
    <path id="Path_88" data-name="Path 88" d="M13.454,22.591c.554.541,1.094,1.055,1.622,1.592a.9.9,0,0,1,.187,1.06,1.284,1.284,0,0,1-.305.532c-.353.275-.75.493-1.129.737a10.68,10.68,0,0,1-.641-.972c-.148-.275-.2-.606-.327-.894A1.6,1.6,0,0,1,13.454,22.591Z" transform="translate(28.385 57.874)" fill="#fff"/>
  </g>
</svg>
